<svg xmlns="http://www.w3.org/2000/svg" xmlns:xlink="http://www.w3.org/1999/xlink" width="50" zoomAndPan="magnify" viewBox="0 0 37.5 37.499999" height="50" preserveAspectRatio="xMidYMid meet" version="1.0"><defs><clipPath id="id1"><path d="M 0 3.75 L 36.75 3.75 L 36.75 33.75 L 0 33.75 Z M 0 3.75 " clip-rule="nonzero"/></clipPath></defs><g clip-path="url(#id1)"><path fill="#ffe11b" d="M 24.839844 27.542969 C 26.550781 27.542969 27.9375 28.933594 27.9375 30.648438 C 27.9375 32.359375 26.550781 33.75 24.839844 33.75 C 23.132812 33.75 21.746094 32.359375 21.746094 30.648438 C 21.746094 28.933594 23.132812 27.542969 24.839844 27.542969 Z M 36.738281 5.417969 C 36.75 5.496094 36.753906 5.554688 36.746094 5.632812 C 36.742188 5.675781 36.738281 5.714844 36.730469 5.757812 C 36.722656 5.804688 36.710938 5.847656 36.699219 5.890625 C 36.667969 6.007812 36.636719 6.121094 36.601562 6.234375 C 36.480469 6.617188 36.363281 7.019531 36.230469 7.390625 C 35.824219 8.582031 35.394531 9.746094 34.925781 10.914062 C 34.394531 12.207031 33.851562 13.425781 33.15625 14.640625 C 32.859375 15.152344 32.566406 15.605469 32.1875 16.0625 C 31.855469 16.453125 31.546875 16.753906 31.066406 16.957031 C 30.210938 17.230469 29.222656 17.289062 28.328125 17.339844 C 22.402344 17.46875 15.992188 16.851562 10.410156 17.089844 C 10.167969 17.054688 9.984375 17.023438 9.847656 16.992188 C 7.644531 16.492188 18.503906 16.433594 18.539062 16.433594 C 21.027344 16.402344 28.308594 16.417969 30.496094 15.558594 C 30.671875 15.457031 30.851562 15.242188 30.976562 15.085938 C 31.273438 14.691406 31.503906 14.289062 31.734375 13.859375 C 32.203125 12.953125 32.46875 12.371094 32.835938 11.4375 C 29.058594 11.425781 25.625 11.578125 21.867188 11.710938 C 18.773438 11.820312 15.507812 11.851562 13.554688 11.601562 C 13.449219 11.59375 13.308594 11.558594 13.207031 11.519531 C 13.046875 11.445312 12.941406 11.367188 12.847656 11.230469 C 12.808594 11.140625 12.8125 11.070312 12.84375 11.011719 C 12.929688 10.859375 13.210938 10.808594 13.414062 10.726562 C 14.929688 10.246094 16.871094 10.132812 18.515625 10.085938 C 20.367188 10.0625 32.976562 10.671875 33.40625 9.925781 C 33.828125 8.777344 34.082031 7.992188 34.4375 6.820312 C 34.457031 6.75 34.476562 6.671875 34.5 6.597656 C 32.453125 6.660156 30.402344 6.703125 28.359375 6.726562 C 27.414062 6.734375 14.539062 6.863281 12.648438 5.875 C 12.5 5.796875 12.417969 5.710938 12.417969 5.617188 C 12.527344 5.390625 13.125 5.28125 13.339844 5.234375 C 18.757812 4.382812 29.996094 4.644531 35.800781 4.628906 C 36 4.628906 36.152344 4.671875 36.320312 4.773438 C 36.449219 4.859375 36.53125 4.941406 36.613281 5.070312 C 36.679688 5.1875 36.71875 5.285156 36.738281 5.417969 Z M 12.714844 21.296875 C 15.070312 21.78125 25.128906 21.679688 28.363281 21.839844 C 29.28125 21.898438 30.054688 22.03125 30.882812 22.457031 C 31.210938 22.640625 31.453125 22.8125 31.703125 23.101562 C 31.9375 23.390625 32.0625 23.648438 32.113281 24.019531 C 32.144531 24.402344 32.074219 24.683594 31.886719 25.015625 C 31.675781 25.339844 31.457031 25.539062 31.140625 25.753906 C 30.871094 25.921875 30.625 26.039062 30.332031 26.152344 C 29.710938 26.382812 29.148438 26.503906 28.492188 26.605469 C 22.449219 27.035156 17.703125 26.324219 11.90625 26.171875 C 11.507812 26.109375 11.207031 26.050781 10.984375 25.996094 C 7.898438 25.269531 20.933594 25.703125 21.605469 25.691406 C 23.871094 25.648438 26.011719 25.558594 28.238281 25.121094 C 28.902344 24.988281 29.644531 24.808594 30.203125 24.40625 C 30.257812 24.367188 30.335938 24.304688 30.390625 24.242188 C 30.300781 24.160156 30.195312 24.101562 30.085938 24.046875 C 29.515625 23.800781 28.921875 23.742188 28.304688 23.722656 C 24.460938 23.683594 15.523438 24.140625 12.179688 23.65625 C 10.761719 23.308594 9.84375 22.859375 8.859375 21.765625 C 8.132812 20.863281 7.734375 20.089844 7.316406 19.03125 C 7.066406 18.382812 6.824219 17.679688 6.628906 17.011719 C 5.824219 14.210938 5.183594 11.308594 4.515625 8.46875 C 4.320312 7.644531 4.097656 6.980469 3.660156 6.257812 C 3.34375 5.804688 3.042969 5.484375 2.5625 5.210938 C 2.367188 5.117188 2.203125 5.058594 1.992188 5.019531 C 1.789062 4.992188 1.628906 4.992188 1.425781 5.019531 C 1.214844 5.058594 1.058594 5.113281 0.867188 5.210938 C 0.777344 5.261719 0.675781 5.347656 0.570312 5.417969 C 0.433594 5.515625 0.289062 5.589844 0.148438 5.554688 C 0.00390625 5.328125 0.238281 4.882812 0.359375 4.695312 C 0.550781 4.421875 0.75 4.253906 1.039062 4.085938 C 1.078125 4.0625 1.121094 4.039062 1.164062 4.019531 C 1.433594 3.890625 1.660156 3.828125 1.957031 3.789062 C 2.332031 3.75 2.625 3.777344 2.992188 3.863281 C 3.84375 4.085938 4.40625 4.5 5 5.140625 C 5.75 5.988281 6.136719 6.820312 6.488281 7.894531 C 7.351562 10.679688 8.125 13.480469 8.984375 16.261719 C 9.402344 17.5625 9.871094 19.0625 10.722656 20.152344 C 11.320312 20.835938 11.851562 21.070312 12.714844 21.296875 Z M 14.832031 27.542969 C 16.539062 27.542969 17.925781 28.933594 17.925781 30.648438 C 17.925781 32.359375 16.539062 33.75 14.832031 33.75 C 13.121094 33.75 11.734375 32.359375 11.734375 30.648438 C 11.734375 28.933594 13.121094 27.542969 14.832031 27.542969 " fill-opacity="1" fill-rule="evenodd"/></g></svg>