<svg xmlns="http://www.w3.org/2000/svg" xmlns:xlink="http://www.w3.org/1999/xlink" width="286" zoomAndPan="magnify" viewBox="0 0 214.5 167.999997" height="224" preserveAspectRatio="xMidYMid meet" version="1.0"><defs><g/><clipPath id="id1"><path d="M 75.132812 75.746094 L 96.132812 75.746094 L 96.132812 92.996094 L 75.132812 92.996094 Z M 75.132812 75.746094 " clip-rule="nonzero"/></clipPath></defs><g clip-path="url(#id1)"><path fill="#ffe11b" d="M 89.324219 89.425781 C 90.304688 89.425781 91.09375 90.226562 91.09375 91.210938 C 91.09375 92.195312 90.304688 92.996094 89.324219 92.996094 C 88.351562 92.996094 87.558594 92.195312 87.558594 91.210938 C 87.558594 90.226562 88.351562 89.425781 89.324219 89.425781 Z M 96.125 76.703125 C 96.128906 76.75 96.132812 76.78125 96.128906 76.828125 C 96.125 76.851562 96.125 76.875 96.117188 76.898438 C 96.113281 76.925781 96.109375 76.949219 96.101562 76.976562 C 96.082031 77.042969 96.066406 77.109375 96.042969 77.175781 C 95.976562 77.390625 95.910156 77.625 95.832031 77.835938 C 95.601562 78.523438 95.355469 79.191406 95.085938 79.863281 C 94.785156 80.609375 94.472656 81.308594 94.078125 82.007812 C 93.90625 82.300781 93.742188 82.5625 93.523438 82.824219 C 93.332031 83.046875 93.15625 83.222656 92.882812 83.339844 C 92.394531 83.496094 91.828125 83.53125 91.316406 83.558594 C 87.933594 83.632812 84.269531 83.277344 81.082031 83.414062 C 80.945312 83.394531 80.835938 83.378906 80.757812 83.359375 C 79.5 83.070312 85.707031 83.039062 85.726562 83.039062 C 87.144531 83.019531 91.308594 83.027344 92.554688 82.535156 C 92.65625 82.476562 92.761719 82.351562 92.832031 82.261719 C 93 82.035156 93.132812 81.804688 93.265625 81.558594 C 93.53125 81.035156 93.683594 80.703125 93.894531 80.164062 C 91.734375 80.15625 89.773438 80.246094 87.628906 80.320312 C 85.859375 80.386719 83.992188 80.402344 82.878906 80.257812 C 82.816406 80.253906 82.738281 80.234375 82.679688 80.210938 C 82.585938 80.171875 82.527344 80.125 82.472656 80.046875 C 82.449219 79.992188 82.453125 79.953125 82.472656 79.917969 C 82.523438 79.832031 82.683594 79.800781 82.796875 79.753906 C 83.664062 79.480469 84.773438 79.414062 85.714844 79.386719 C 86.769531 79.375 93.972656 79.722656 94.21875 79.296875 C 94.460938 78.636719 94.605469 78.183594 94.808594 77.511719 C 94.820312 77.46875 94.832031 77.425781 94.84375 77.382812 C 93.675781 77.417969 92.503906 77.441406 91.335938 77.457031 C 90.796875 77.460938 83.441406 77.535156 82.359375 76.964844 C 82.273438 76.921875 82.230469 76.871094 82.230469 76.816406 C 82.289062 76.6875 82.632812 76.625 82.757812 76.597656 C 85.851562 76.109375 92.269531 76.257812 95.585938 76.25 C 95.703125 76.25 95.789062 76.273438 95.882812 76.332031 C 95.957031 76.382812 96.003906 76.429688 96.050781 76.503906 C 96.089844 76.570312 96.113281 76.625 96.125 76.703125 Z M 82.398438 85.835938 C 83.742188 86.113281 89.492188 86.054688 91.339844 86.144531 C 91.863281 86.179688 92.304688 86.257812 92.777344 86.503906 C 92.964844 86.605469 93.105469 86.707031 93.246094 86.871094 C 93.382812 87.039062 93.453125 87.1875 93.480469 87.402344 C 93.5 87.621094 93.457031 87.78125 93.351562 87.972656 C 93.230469 88.160156 93.105469 88.273438 92.925781 88.398438 C 92.773438 88.492188 92.632812 88.558594 92.464844 88.625 C 92.109375 88.757812 91.785156 88.828125 91.414062 88.886719 C 87.960938 89.136719 85.246094 88.726562 81.9375 88.636719 C 81.710938 88.601562 81.535156 88.566406 81.410156 88.539062 C 79.644531 88.117188 87.09375 88.367188 87.476562 88.363281 C 88.773438 88.335938 89.992188 88.285156 91.269531 88.035156 C 91.648438 87.957031 92.070312 87.855469 92.390625 87.621094 C 92.421875 87.601562 92.464844 87.5625 92.496094 87.527344 C 92.445312 87.480469 92.382812 87.445312 92.320312 87.417969 C 91.996094 87.273438 91.65625 87.238281 91.304688 87.230469 C 89.109375 87.207031 84.003906 87.46875 82.09375 87.191406 C 81.28125 86.992188 80.757812 86.734375 80.195312 86.101562 C 79.78125 85.585938 79.550781 85.140625 79.316406 84.53125 C 79.171875 84.160156 79.03125 83.753906 78.921875 83.371094 C 78.460938 81.757812 78.09375 80.089844 77.714844 78.457031 C 77.601562 77.984375 77.476562 77.601562 77.226562 77.183594 C 77.042969 76.925781 76.875 76.742188 76.597656 76.585938 C 76.488281 76.53125 76.394531 76.496094 76.273438 76.476562 C 76.15625 76.457031 76.0625 76.457031 75.949219 76.476562 C 75.828125 76.496094 75.738281 76.527344 75.628906 76.585938 C 75.578125 76.613281 75.519531 76.660156 75.460938 76.703125 C 75.382812 76.757812 75.300781 76.804688 75.21875 76.78125 C 75.136719 76.652344 75.269531 76.394531 75.339844 76.289062 C 75.449219 76.132812 75.5625 76.035156 75.726562 75.9375 C 75.75 75.921875 75.773438 75.910156 75.796875 75.898438 C 75.953125 75.824219 76.082031 75.789062 76.25 75.769531 C 76.464844 75.746094 76.632812 75.757812 76.84375 75.808594 C 77.328125 75.9375 77.652344 76.175781 77.992188 76.542969 C 78.421875 77.03125 78.640625 77.511719 78.839844 78.128906 C 79.335938 79.726562 79.773438 81.339844 80.265625 82.9375 C 80.503906 83.6875 80.773438 84.550781 81.261719 85.175781 C 81.601562 85.570312 81.90625 85.703125 82.398438 85.835938 Z M 83.605469 89.425781 C 84.582031 89.425781 85.375 90.226562 85.375 91.210938 C 85.375 92.195312 84.582031 92.996094 83.605469 92.996094 C 82.628906 92.996094 81.839844 92.195312 81.839844 91.210938 C 81.839844 90.226562 82.628906 89.425781 83.605469 89.425781 " fill-opacity="1" fill-rule="evenodd"/></g><g fill="#ffe11b" fill-opacity="1"><g transform="translate(96.270362, 81.16506)"><g><path d="M 2.609375 -2.125 C 2.515625 -2.113281 2.445312 -2.109375 2.40625 -2.109375 C 2.125 -2.085938 1.90625 -2.066406 1.75 -2.046875 C 1.664062 -2.023438 1.5625 -1.921875 1.4375 -1.734375 C 1.332031 -1.566406 1.257812 -1.3125 1.21875 -0.96875 L 1.15625 -0.75 C 1.132812 -0.6875 1.109375 -0.628906 1.078125 -0.578125 C 1.046875 -0.546875 1.007812 -0.519531 0.96875 -0.5 C 0.9375 -0.488281 0.90625 -0.484375 0.875 -0.484375 C 0.894531 -0.484375 0.882812 -0.503906 0.84375 -0.546875 C 0.769531 -0.648438 0.710938 -0.734375 0.671875 -0.796875 C 0.640625 -0.859375 0.625 -0.929688 0.625 -1.015625 C 0.625 -1.046875 0.628906 -1.085938 0.640625 -1.140625 C 0.660156 -1.191406 0.671875 -1.25 0.671875 -1.3125 C 0.679688 -1.332031 0.6875 -1.363281 0.6875 -1.40625 C 0.695312 -1.457031 0.707031 -1.5 0.71875 -1.53125 C 0.726562 -1.5625 0.734375 -1.59375 0.734375 -1.625 C 0.734375 -1.707031 0.691406 -1.785156 0.609375 -1.859375 C 0.472656 -1.972656 0.40625 -2.078125 0.40625 -2.171875 C 0.40625 -2.285156 0.492188 -2.382812 0.671875 -2.46875 C 0.679688 -2.476562 0.703125 -2.492188 0.734375 -2.515625 C 0.765625 -2.535156 0.789062 -2.546875 0.8125 -2.546875 C 0.894531 -2.566406 0.953125 -2.601562 0.984375 -2.65625 C 1.023438 -2.707031 1.054688 -2.785156 1.078125 -2.890625 C 1.148438 -3.140625 1.234375 -3.410156 1.328125 -3.703125 L 1.390625 -3.921875 C 1.398438 -3.941406 1.421875 -3.988281 1.453125 -4.0625 C 1.617188 -4.070312 1.738281 -4.023438 1.8125 -3.921875 C 1.882812 -3.828125 1.921875 -3.703125 1.921875 -3.546875 C 1.921875 -3.523438 1.914062 -3.492188 1.90625 -3.453125 L 1.859375 -3.21875 L 1.828125 -3.09375 L 1.765625 -2.78125 L 2.078125 -2.765625 L 2.8125 -2.703125 L 3.015625 -3.296875 L 3.0625 -3.5 C 3.164062 -3.644531 3.257812 -3.679688 3.34375 -3.609375 C 3.425781 -3.535156 3.5 -3.453125 3.5625 -3.359375 C 3.625 -3.265625 3.65625 -3.160156 3.65625 -3.046875 C 3.65625 -2.929688 3.617188 -2.789062 3.546875 -2.625 C 3.578125 -2.601562 3.613281 -2.582031 3.65625 -2.5625 C 3.707031 -2.550781 3.738281 -2.546875 3.75 -2.546875 C 3.875 -2.515625 3.96875 -2.472656 4.03125 -2.421875 C 4.09375 -2.378906 4.132812 -2.296875 4.15625 -2.171875 C 4.101562 -2.097656 4.035156 -2.050781 3.953125 -2.03125 C 3.878906 -2.007812 3.789062 -2.003906 3.6875 -2.015625 C 3.65625 -2.015625 3.609375 -2.015625 3.546875 -2.015625 C 3.460938 -2.015625 3.40625 -1.992188 3.375 -1.953125 C 3.34375 -1.921875 3.3125 -1.84375 3.28125 -1.71875 L 3.203125 -1.5 C 3.109375 -1.195312 3.039062 -0.953125 3 -0.765625 C 2.957031 -0.585938 2.929688 -0.398438 2.921875 -0.203125 C 2.921875 -0.191406 2.921875 -0.160156 2.921875 -0.109375 C 2.921875 -0.0546875 2.90625 -0.0195312 2.875 0 C 2.851562 0.03125 2.816406 0.046875 2.765625 0.046875 C 2.640625 0.0546875 2.5625 -0.0078125 2.53125 -0.15625 C 2.445312 -0.351562 2.40625 -0.546875 2.40625 -0.734375 C 2.40625 -0.816406 2.40625 -0.878906 2.40625 -0.921875 C 2.445312 -1.171875 2.503906 -1.488281 2.578125 -1.875 Z M 2.609375 -2.125 "/></g></g></g><g fill="#ffe11b" fill-opacity="1"><g transform="translate(100.561205, 81.16506)"><g><path d="M 0.640625 -2.921875 C 0.785156 -3.171875 1.019531 -3.390625 1.34375 -3.578125 C 1.59375 -3.722656 1.882812 -3.796875 2.21875 -3.796875 C 2.445312 -3.796875 2.671875 -3.753906 2.890625 -3.671875 C 3.117188 -3.597656 3.300781 -3.488281 3.4375 -3.34375 C 3.488281 -3.300781 3.546875 -3.253906 3.609375 -3.203125 C 3.691406 -3.128906 3.742188 -3.082031 3.765625 -3.0625 C 3.953125 -2.851562 4.046875 -2.625 4.046875 -2.375 C 4.046875 -2.1875 3.984375 -1.992188 3.859375 -1.796875 C 3.703125 -1.523438 3.535156 -1.285156 3.359375 -1.078125 C 3.179688 -0.878906 2.988281 -0.710938 2.78125 -0.578125 C 2.40625 -0.328125 2.050781 -0.203125 1.71875 -0.203125 C 1.625 -0.203125 1.523438 -0.21875 1.421875 -0.25 C 1.085938 -0.320312 0.816406 -0.476562 0.609375 -0.71875 C 0.398438 -0.957031 0.296875 -1.234375 0.296875 -1.546875 C 0.296875 -1.773438 0.359375 -2.007812 0.484375 -2.25 C 0.492188 -2.269531 0.507812 -2.289062 0.53125 -2.3125 C 0.5625 -2.332031 0.582031 -2.347656 0.59375 -2.359375 L 0.734375 -2.296875 L 0.859375 -2.21875 C 0.972656 -2.15625 1.046875 -2.101562 1.078125 -2.0625 C 1.117188 -2.019531 1.140625 -1.960938 1.140625 -1.890625 C 1.140625 -1.828125 1.132812 -1.75 1.125 -1.65625 C 1.125 -1.625 1.125 -1.578125 1.125 -1.515625 C 1.125 -1.367188 1.140625 -1.195312 1.171875 -1 C 1.179688 -0.9375 1.207031 -0.890625 1.25 -0.859375 C 1.289062 -0.828125 1.34375 -0.8125 1.40625 -0.8125 C 1.4375 -0.8125 1.460938 -0.816406 1.484375 -0.828125 C 1.660156 -0.859375 1.8125 -0.894531 1.9375 -0.9375 C 2.070312 -0.988281 2.191406 -1.0625 2.296875 -1.15625 C 2.484375 -1.320312 2.648438 -1.476562 2.796875 -1.625 C 2.941406 -1.78125 3.066406 -1.953125 3.171875 -2.140625 C 3.242188 -2.253906 3.28125 -2.375 3.28125 -2.5 C 3.28125 -2.59375 3.257812 -2.6875 3.21875 -2.78125 C 3.175781 -2.875 3.113281 -2.976562 3.03125 -3.09375 C 2.894531 -3.28125 2.722656 -3.375 2.515625 -3.375 C 2.429688 -3.375 2.347656 -3.359375 2.265625 -3.328125 C 2.242188 -3.328125 2.125 -3.289062 1.90625 -3.21875 C 1.875 -3.207031 1.847656 -3.195312 1.828125 -3.1875 C 1.804688 -3.175781 1.78125 -3.171875 1.75 -3.171875 L 1.09375 -2.96875 C 1.007812 -2.945312 0.878906 -2.910156 0.703125 -2.859375 Z M 0.640625 -2.921875 "/></g></g></g><g fill="#ffe11b" fill-opacity="1"><g transform="translate(104.788263, 81.16506)"><g><path d="M 1.765625 -2 C 1.773438 -2.15625 1.785156 -2.300781 1.796875 -2.4375 C 1.804688 -2.570312 1.820312 -2.691406 1.84375 -2.796875 L 1.890625 -3.265625 C 1.585938 -3.210938 1.265625 -3.125 0.921875 -3 C 0.835938 -2.96875 0.765625 -2.953125 0.703125 -2.953125 C 0.597656 -2.953125 0.5 -2.976562 0.40625 -3.03125 C 0.320312 -3.09375 0.253906 -3.179688 0.203125 -3.296875 C 0.222656 -3.378906 0.265625 -3.441406 0.328125 -3.484375 C 0.390625 -3.523438 0.476562 -3.566406 0.59375 -3.609375 C 1.132812 -3.804688 1.75 -3.90625 2.4375 -3.90625 C 2.769531 -3.90625 3.113281 -3.890625 3.46875 -3.859375 C 3.820312 -3.828125 4.03125 -3.8125 4.09375 -3.8125 L 4.5 -3.78125 C 4.519531 -3.78125 4.546875 -3.78125 4.578125 -3.78125 C 4.617188 -3.78125 4.648438 -3.769531 4.671875 -3.75 C 4.691406 -3.738281 4.703125 -3.710938 4.703125 -3.671875 C 4.703125 -3.578125 4.632812 -3.519531 4.5 -3.5 C 4.15625 -3.46875 3.90625 -3.441406 3.75 -3.421875 C 3.601562 -3.421875 3.492188 -3.414062 3.421875 -3.40625 C 3.117188 -3.382812 2.890625 -3.367188 2.734375 -3.359375 C 2.640625 -3.347656 2.578125 -3.332031 2.546875 -3.3125 C 2.515625 -3.300781 2.492188 -3.28125 2.484375 -3.25 C 2.472656 -3.21875 2.460938 -3.148438 2.453125 -3.046875 C 2.429688 -2.804688 2.390625 -2.390625 2.328125 -1.796875 C 2.265625 -1.253906 2.226562 -0.878906 2.21875 -0.671875 C 2.207031 -0.566406 2.179688 -0.429688 2.140625 -0.265625 C 2.109375 -0.171875 2.082031 -0.101562 2.0625 -0.0625 C 2.039062 -0.03125 2.007812 -0.0078125 1.96875 0 C 1.9375 0 1.875 0 1.78125 0 C 1.695312 0 1.632812 -0.015625 1.59375 -0.046875 C 1.5625 -0.0859375 1.546875 -0.132812 1.546875 -0.1875 C 1.546875 -0.195312 1.546875 -0.222656 1.546875 -0.265625 C 1.640625 -0.597656 1.710938 -1.175781 1.765625 -2 Z M 1.765625 -2 "/></g></g></g><g fill="#ffe11b" fill-opacity="1"><g transform="translate(109.200872, 81.16506)"><g><path d="M 0.46875 -1.78125 C 0.457031 -1.800781 0.453125 -1.84375 0.453125 -1.90625 C 0.453125 -2.0625 0.46875 -2.207031 0.5 -2.34375 C 0.53125 -2.488281 0.578125 -2.648438 0.640625 -2.828125 C 0.691406 -2.984375 0.800781 -3.140625 0.96875 -3.296875 C 1.132812 -3.453125 1.316406 -3.582031 1.515625 -3.6875 C 1.710938 -3.789062 1.894531 -3.84375 2.0625 -3.84375 C 2.226562 -3.84375 2.390625 -3.78125 2.546875 -3.65625 C 2.703125 -3.539062 2.800781 -3.40625 2.84375 -3.25 C 2.851562 -3.195312 2.859375 -3.164062 2.859375 -3.15625 C 2.859375 -3.09375 2.84375 -3.046875 2.8125 -3.015625 C 2.78125 -2.992188 2.734375 -2.984375 2.671875 -2.984375 C 2.628906 -2.984375 2.597656 -2.984375 2.578125 -2.984375 C 2.566406 -2.984375 2.550781 -2.992188 2.53125 -3.015625 C 2.414062 -3.066406 2.304688 -3.09375 2.203125 -3.09375 C 2.003906 -3.09375 1.8125 -2.992188 1.625 -2.796875 C 1.289062 -2.453125 1.125 -2.039062 1.125 -1.5625 C 1.125 -1.394531 1.140625 -1.234375 1.171875 -1.078125 C 1.210938 -0.898438 1.28125 -0.769531 1.375 -0.6875 C 1.476562 -0.601562 1.613281 -0.5625 1.78125 -0.5625 C 1.832031 -0.5625 1.894531 -0.566406 1.96875 -0.578125 C 2.21875 -0.609375 2.441406 -0.679688 2.640625 -0.796875 C 2.847656 -0.910156 3.078125 -1.066406 3.328125 -1.265625 C 3.378906 -1.316406 3.476562 -1.414062 3.625 -1.5625 L 3.75 -1.6875 C 3.789062 -1.726562 3.832031 -1.757812 3.875 -1.78125 C 3.914062 -1.800781 3.953125 -1.8125 3.984375 -1.8125 C 4.023438 -1.8125 4.082031 -1.789062 4.15625 -1.75 C 4.238281 -1.6875 4.28125 -1.613281 4.28125 -1.53125 C 4.28125 -1.46875 4.257812 -1.40625 4.21875 -1.34375 C 4.207031 -1.320312 4.164062 -1.257812 4.09375 -1.15625 C 4.019531 -1.0625 3.953125 -0.972656 3.890625 -0.890625 C 3.828125 -0.816406 3.757812 -0.753906 3.6875 -0.703125 C 3.332031 -0.390625 2.960938 -0.175781 2.578125 -0.0625 C 2.410156 -0.0195312 2.238281 0 2.0625 0 C 1.75 0 1.472656 -0.078125 1.234375 -0.234375 C 0.992188 -0.390625 0.804688 -0.597656 0.671875 -0.859375 C 0.535156 -1.117188 0.46875 -1.382812 0.46875 -1.65625 Z M 0.46875 -1.78125 "/></g></g></g><g fill="#ffe11b" fill-opacity="1"><g transform="translate(113.601885, 81.16506)"><g><path d="M 2.609375 -2.125 C 2.515625 -2.113281 2.445312 -2.109375 2.40625 -2.109375 C 2.125 -2.085938 1.90625 -2.066406 1.75 -2.046875 C 1.664062 -2.023438 1.5625 -1.921875 1.4375 -1.734375 C 1.332031 -1.566406 1.257812 -1.3125 1.21875 -0.96875 L 1.15625 -0.75 C 1.132812 -0.6875 1.109375 -0.628906 1.078125 -0.578125 C 1.046875 -0.546875 1.007812 -0.519531 0.96875 -0.5 C 0.9375 -0.488281 0.90625 -0.484375 0.875 -0.484375 C 0.894531 -0.484375 0.882812 -0.503906 0.84375 -0.546875 C 0.769531 -0.648438 0.710938 -0.734375 0.671875 -0.796875 C 0.640625 -0.859375 0.625 -0.929688 0.625 -1.015625 C 0.625 -1.046875 0.628906 -1.085938 0.640625 -1.140625 C 0.660156 -1.191406 0.671875 -1.25 0.671875 -1.3125 C 0.679688 -1.332031 0.6875 -1.363281 0.6875 -1.40625 C 0.695312 -1.457031 0.707031 -1.5 0.71875 -1.53125 C 0.726562 -1.5625 0.734375 -1.59375 0.734375 -1.625 C 0.734375 -1.707031 0.691406 -1.785156 0.609375 -1.859375 C 0.472656 -1.972656 0.40625 -2.078125 0.40625 -2.171875 C 0.40625 -2.285156 0.492188 -2.382812 0.671875 -2.46875 C 0.679688 -2.476562 0.703125 -2.492188 0.734375 -2.515625 C 0.765625 -2.535156 0.789062 -2.546875 0.8125 -2.546875 C 0.894531 -2.566406 0.953125 -2.601562 0.984375 -2.65625 C 1.023438 -2.707031 1.054688 -2.785156 1.078125 -2.890625 C 1.148438 -3.140625 1.234375 -3.410156 1.328125 -3.703125 L 1.390625 -3.921875 C 1.398438 -3.941406 1.421875 -3.988281 1.453125 -4.0625 C 1.617188 -4.070312 1.738281 -4.023438 1.8125 -3.921875 C 1.882812 -3.828125 1.921875 -3.703125 1.921875 -3.546875 C 1.921875 -3.523438 1.914062 -3.492188 1.90625 -3.453125 L 1.859375 -3.21875 L 1.828125 -3.09375 L 1.765625 -2.78125 L 2.078125 -2.765625 L 2.8125 -2.703125 L 3.015625 -3.296875 L 3.0625 -3.5 C 3.164062 -3.644531 3.257812 -3.679688 3.34375 -3.609375 C 3.425781 -3.535156 3.5 -3.453125 3.5625 -3.359375 C 3.625 -3.265625 3.65625 -3.160156 3.65625 -3.046875 C 3.65625 -2.929688 3.617188 -2.789062 3.546875 -2.625 C 3.578125 -2.601562 3.613281 -2.582031 3.65625 -2.5625 C 3.707031 -2.550781 3.738281 -2.546875 3.75 -2.546875 C 3.875 -2.515625 3.96875 -2.472656 4.03125 -2.421875 C 4.09375 -2.378906 4.132812 -2.296875 4.15625 -2.171875 C 4.101562 -2.097656 4.035156 -2.050781 3.953125 -2.03125 C 3.878906 -2.007812 3.789062 -2.003906 3.6875 -2.015625 C 3.65625 -2.015625 3.609375 -2.015625 3.546875 -2.015625 C 3.460938 -2.015625 3.40625 -1.992188 3.375 -1.953125 C 3.34375 -1.921875 3.3125 -1.84375 3.28125 -1.71875 L 3.203125 -1.5 C 3.109375 -1.195312 3.039062 -0.953125 3 -0.765625 C 2.957031 -0.585938 2.929688 -0.398438 2.921875 -0.203125 C 2.921875 -0.191406 2.921875 -0.160156 2.921875 -0.109375 C 2.921875 -0.0546875 2.90625 -0.0195312 2.875 0 C 2.851562 0.03125 2.816406 0.046875 2.765625 0.046875 C 2.640625 0.0546875 2.5625 -0.0078125 2.53125 -0.15625 C 2.445312 -0.351562 2.40625 -0.546875 2.40625 -0.734375 C 2.40625 -0.816406 2.40625 -0.878906 2.40625 -0.921875 C 2.445312 -1.171875 2.503906 -1.488281 2.578125 -1.875 Z M 2.609375 -2.125 "/></g></g></g><g fill="#ffe11b" fill-opacity="1"><g transform="translate(117.892728, 81.16506)"><g><path d="M 2.125 -1.578125 C 2.050781 -1.554688 1.988281 -1.546875 1.9375 -1.546875 C 1.851562 -1.546875 1.773438 -1.570312 1.703125 -1.625 C 1.628906 -1.6875 1.566406 -1.765625 1.515625 -1.859375 L 1.671875 -1.96875 C 1.859375 -2.09375 2 -2.1875 2.09375 -2.25 C 2.382812 -2.488281 2.640625 -2.707031 2.859375 -2.90625 C 2.898438 -2.9375 2.953125 -3.007812 3.015625 -3.125 L 3.09375 -3.265625 L 2.984375 -3.3125 C 2.972656 -3.3125 2.945312 -3.320312 2.90625 -3.34375 C 2.875 -3.363281 2.84375 -3.375 2.8125 -3.375 C 2.476562 -3.40625 2.101562 -3.4375 1.6875 -3.46875 C 1.550781 -3.476562 1.460938 -3.40625 1.421875 -3.25 L 0.9375 -1 C 0.914062 -0.882812 0.894531 -0.78125 0.875 -0.6875 C 0.863281 -0.601562 0.847656 -0.53125 0.828125 -0.46875 L 0.78125 -0.21875 C 0.769531 -0.15625 0.742188 -0.101562 0.703125 -0.0625 C 0.671875 -0.03125 0.625 -0.0078125 0.5625 0 L 0.484375 0 C 0.410156 0 0.359375 -0.015625 0.328125 -0.046875 C 0.296875 -0.0859375 0.285156 -0.148438 0.296875 -0.234375 L 0.296875 -0.46875 C 0.328125 -0.925781 0.359375 -1.269531 0.390625 -1.5 C 0.410156 -1.664062 0.441406 -1.847656 0.484375 -2.046875 C 0.535156 -2.242188 0.566406 -2.375 0.578125 -2.4375 C 0.628906 -2.664062 0.671875 -2.835938 0.703125 -2.953125 L 0.390625 -3 C 0.347656 -3.101562 0.328125 -3.191406 0.328125 -3.265625 C 0.328125 -3.390625 0.382812 -3.515625 0.5 -3.640625 C 0.582031 -3.734375 0.675781 -3.804688 0.78125 -3.859375 C 0.894531 -3.921875 1.015625 -3.960938 1.140625 -3.984375 C 1.304688 -4.003906 1.457031 -4.015625 1.59375 -4.015625 C 2.125 -4.015625 2.664062 -3.898438 3.21875 -3.671875 C 3.28125 -3.648438 3.34375 -3.609375 3.40625 -3.546875 C 3.46875 -3.492188 3.507812 -3.457031 3.53125 -3.4375 C 3.6875 -3.3125 3.765625 -3.179688 3.765625 -3.046875 C 3.765625 -2.953125 3.734375 -2.847656 3.671875 -2.734375 C 3.640625 -2.671875 3.585938 -2.597656 3.515625 -2.515625 C 3.160156 -2.117188 2.695312 -1.804688 2.125 -1.578125 Z M 2.125 -1.578125 "/></g></g></g><g fill="#ffe11b" fill-opacity="1"><g transform="translate(121.342797, 81.16506)"><g><path d="M 0.640625 -2.921875 C 0.785156 -3.171875 1.019531 -3.390625 1.34375 -3.578125 C 1.59375 -3.722656 1.882812 -3.796875 2.21875 -3.796875 C 2.445312 -3.796875 2.671875 -3.753906 2.890625 -3.671875 C 3.117188 -3.597656 3.300781 -3.488281 3.4375 -3.34375 C 3.488281 -3.300781 3.546875 -3.253906 3.609375 -3.203125 C 3.691406 -3.128906 3.742188 -3.082031 3.765625 -3.0625 C 3.953125 -2.851562 4.046875 -2.625 4.046875 -2.375 C 4.046875 -2.1875 3.984375 -1.992188 3.859375 -1.796875 C 3.703125 -1.523438 3.535156 -1.285156 3.359375 -1.078125 C 3.179688 -0.878906 2.988281 -0.710938 2.78125 -0.578125 C 2.40625 -0.328125 2.050781 -0.203125 1.71875 -0.203125 C 1.625 -0.203125 1.523438 -0.21875 1.421875 -0.25 C 1.085938 -0.320312 0.816406 -0.476562 0.609375 -0.71875 C 0.398438 -0.957031 0.296875 -1.234375 0.296875 -1.546875 C 0.296875 -1.773438 0.359375 -2.007812 0.484375 -2.25 C 0.492188 -2.269531 0.507812 -2.289062 0.53125 -2.3125 C 0.5625 -2.332031 0.582031 -2.347656 0.59375 -2.359375 L 0.734375 -2.296875 L 0.859375 -2.21875 C 0.972656 -2.15625 1.046875 -2.101562 1.078125 -2.0625 C 1.117188 -2.019531 1.140625 -1.960938 1.140625 -1.890625 C 1.140625 -1.828125 1.132812 -1.75 1.125 -1.65625 C 1.125 -1.625 1.125 -1.578125 1.125 -1.515625 C 1.125 -1.367188 1.140625 -1.195312 1.171875 -1 C 1.179688 -0.9375 1.207031 -0.890625 1.25 -0.859375 C 1.289062 -0.828125 1.34375 -0.8125 1.40625 -0.8125 C 1.4375 -0.8125 1.460938 -0.816406 1.484375 -0.828125 C 1.660156 -0.859375 1.8125 -0.894531 1.9375 -0.9375 C 2.070312 -0.988281 2.191406 -1.0625 2.296875 -1.15625 C 2.484375 -1.320312 2.648438 -1.476562 2.796875 -1.625 C 2.941406 -1.78125 3.066406 -1.953125 3.171875 -2.140625 C 3.242188 -2.253906 3.28125 -2.375 3.28125 -2.5 C 3.28125 -2.59375 3.257812 -2.6875 3.21875 -2.78125 C 3.175781 -2.875 3.113281 -2.976562 3.03125 -3.09375 C 2.894531 -3.28125 2.722656 -3.375 2.515625 -3.375 C 2.429688 -3.375 2.347656 -3.359375 2.265625 -3.328125 C 2.242188 -3.328125 2.125 -3.289062 1.90625 -3.21875 C 1.875 -3.207031 1.847656 -3.195312 1.828125 -3.1875 C 1.804688 -3.175781 1.78125 -3.171875 1.75 -3.171875 L 1.09375 -2.96875 C 1.007812 -2.945312 0.878906 -2.910156 0.703125 -2.859375 Z M 0.640625 -2.921875 "/></g></g></g><g fill="#ffe11b" fill-opacity="1"><g transform="translate(125.569856, 81.16506)"><g><path d="M 1.765625 -2 C 1.773438 -2.15625 1.785156 -2.300781 1.796875 -2.4375 C 1.804688 -2.570312 1.820312 -2.691406 1.84375 -2.796875 L 1.890625 -3.265625 C 1.585938 -3.210938 1.265625 -3.125 0.921875 -3 C 0.835938 -2.96875 0.765625 -2.953125 0.703125 -2.953125 C 0.597656 -2.953125 0.5 -2.976562 0.40625 -3.03125 C 0.320312 -3.09375 0.253906 -3.179688 0.203125 -3.296875 C 0.222656 -3.378906 0.265625 -3.441406 0.328125 -3.484375 C 0.390625 -3.523438 0.476562 -3.566406 0.59375 -3.609375 C 1.132812 -3.804688 1.75 -3.90625 2.4375 -3.90625 C 2.769531 -3.90625 3.113281 -3.890625 3.46875 -3.859375 C 3.820312 -3.828125 4.03125 -3.8125 4.09375 -3.8125 L 4.5 -3.78125 C 4.519531 -3.78125 4.546875 -3.78125 4.578125 -3.78125 C 4.617188 -3.78125 4.648438 -3.769531 4.671875 -3.75 C 4.691406 -3.738281 4.703125 -3.710938 4.703125 -3.671875 C 4.703125 -3.578125 4.632812 -3.519531 4.5 -3.5 C 4.15625 -3.46875 3.90625 -3.441406 3.75 -3.421875 C 3.601562 -3.421875 3.492188 -3.414062 3.421875 -3.40625 C 3.117188 -3.382812 2.890625 -3.367188 2.734375 -3.359375 C 2.640625 -3.347656 2.578125 -3.332031 2.546875 -3.3125 C 2.515625 -3.300781 2.492188 -3.28125 2.484375 -3.25 C 2.472656 -3.21875 2.460938 -3.148438 2.453125 -3.046875 C 2.429688 -2.804688 2.390625 -2.390625 2.328125 -1.796875 C 2.265625 -1.253906 2.226562 -0.878906 2.21875 -0.671875 C 2.207031 -0.566406 2.179688 -0.429688 2.140625 -0.265625 C 2.109375 -0.171875 2.082031 -0.101562 2.0625 -0.0625 C 2.039062 -0.03125 2.007812 -0.0078125 1.96875 0 C 1.9375 0 1.875 0 1.78125 0 C 1.695312 0 1.632812 -0.015625 1.59375 -0.046875 C 1.5625 -0.0859375 1.546875 -0.132812 1.546875 -0.1875 C 1.546875 -0.195312 1.546875 -0.222656 1.546875 -0.265625 C 1.640625 -0.597656 1.710938 -1.175781 1.765625 -2 Z M 1.765625 -2 "/></g></g></g><g fill="#ffe11b" fill-opacity="1"><g transform="translate(129.982464, 81.16506)"><g><path d="M 0.46875 -1.78125 C 0.457031 -1.800781 0.453125 -1.84375 0.453125 -1.90625 C 0.453125 -2.0625 0.46875 -2.207031 0.5 -2.34375 C 0.53125 -2.488281 0.578125 -2.648438 0.640625 -2.828125 C 0.691406 -2.984375 0.800781 -3.140625 0.96875 -3.296875 C 1.132812 -3.453125 1.316406 -3.582031 1.515625 -3.6875 C 1.710938 -3.789062 1.894531 -3.84375 2.0625 -3.84375 C 2.226562 -3.84375 2.390625 -3.78125 2.546875 -3.65625 C 2.703125 -3.539062 2.800781 -3.40625 2.84375 -3.25 C 2.851562 -3.195312 2.859375 -3.164062 2.859375 -3.15625 C 2.859375 -3.09375 2.84375 -3.046875 2.8125 -3.015625 C 2.78125 -2.992188 2.734375 -2.984375 2.671875 -2.984375 C 2.628906 -2.984375 2.597656 -2.984375 2.578125 -2.984375 C 2.566406 -2.984375 2.550781 -2.992188 2.53125 -3.015625 C 2.414062 -3.066406 2.304688 -3.09375 2.203125 -3.09375 C 2.003906 -3.09375 1.8125 -2.992188 1.625 -2.796875 C 1.289062 -2.453125 1.125 -2.039062 1.125 -1.5625 C 1.125 -1.394531 1.140625 -1.234375 1.171875 -1.078125 C 1.210938 -0.898438 1.28125 -0.769531 1.375 -0.6875 C 1.476562 -0.601562 1.613281 -0.5625 1.78125 -0.5625 C 1.832031 -0.5625 1.894531 -0.566406 1.96875 -0.578125 C 2.21875 -0.609375 2.441406 -0.679688 2.640625 -0.796875 C 2.847656 -0.910156 3.078125 -1.066406 3.328125 -1.265625 C 3.378906 -1.316406 3.476562 -1.414062 3.625 -1.5625 L 3.75 -1.6875 C 3.789062 -1.726562 3.832031 -1.757812 3.875 -1.78125 C 3.914062 -1.800781 3.953125 -1.8125 3.984375 -1.8125 C 4.023438 -1.8125 4.082031 -1.789062 4.15625 -1.75 C 4.238281 -1.6875 4.28125 -1.613281 4.28125 -1.53125 C 4.28125 -1.46875 4.257812 -1.40625 4.21875 -1.34375 C 4.207031 -1.320312 4.164062 -1.257812 4.09375 -1.15625 C 4.019531 -1.0625 3.953125 -0.972656 3.890625 -0.890625 C 3.828125 -0.816406 3.757812 -0.753906 3.6875 -0.703125 C 3.332031 -0.390625 2.960938 -0.175781 2.578125 -0.0625 C 2.410156 -0.0195312 2.238281 0 2.0625 0 C 1.75 0 1.472656 -0.078125 1.234375 -0.234375 C 0.992188 -0.390625 0.804688 -0.597656 0.671875 -0.859375 C 0.535156 -1.117188 0.46875 -1.382812 0.46875 -1.65625 Z M 0.46875 -1.78125 "/></g></g></g><g fill="#ffe11b" fill-opacity="1"><g transform="translate(134.383477, 81.16506)"><g><path d="M 2.609375 -2.125 C 2.515625 -2.113281 2.445312 -2.109375 2.40625 -2.109375 C 2.125 -2.085938 1.90625 -2.066406 1.75 -2.046875 C 1.664062 -2.023438 1.5625 -1.921875 1.4375 -1.734375 C 1.332031 -1.566406 1.257812 -1.3125 1.21875 -0.96875 L 1.15625 -0.75 C 1.132812 -0.6875 1.109375 -0.628906 1.078125 -0.578125 C 1.046875 -0.546875 1.007812 -0.519531 0.96875 -0.5 C 0.9375 -0.488281 0.90625 -0.484375 0.875 -0.484375 C 0.894531 -0.484375 0.882812 -0.503906 0.84375 -0.546875 C 0.769531 -0.648438 0.710938 -0.734375 0.671875 -0.796875 C 0.640625 -0.859375 0.625 -0.929688 0.625 -1.015625 C 0.625 -1.046875 0.628906 -1.085938 0.640625 -1.140625 C 0.660156 -1.191406 0.671875 -1.25 0.671875 -1.3125 C 0.679688 -1.332031 0.6875 -1.363281 0.6875 -1.40625 C 0.695312 -1.457031 0.707031 -1.5 0.71875 -1.53125 C 0.726562 -1.5625 0.734375 -1.59375 0.734375 -1.625 C 0.734375 -1.707031 0.691406 -1.785156 0.609375 -1.859375 C 0.472656 -1.972656 0.40625 -2.078125 0.40625 -2.171875 C 0.40625 -2.285156 0.492188 -2.382812 0.671875 -2.46875 C 0.679688 -2.476562 0.703125 -2.492188 0.734375 -2.515625 C 0.765625 -2.535156 0.789062 -2.546875 0.8125 -2.546875 C 0.894531 -2.566406 0.953125 -2.601562 0.984375 -2.65625 C 1.023438 -2.707031 1.054688 -2.785156 1.078125 -2.890625 C 1.148438 -3.140625 1.234375 -3.410156 1.328125 -3.703125 L 1.390625 -3.921875 C 1.398438 -3.941406 1.421875 -3.988281 1.453125 -4.0625 C 1.617188 -4.070312 1.738281 -4.023438 1.8125 -3.921875 C 1.882812 -3.828125 1.921875 -3.703125 1.921875 -3.546875 C 1.921875 -3.523438 1.914062 -3.492188 1.90625 -3.453125 L 1.859375 -3.21875 L 1.828125 -3.09375 L 1.765625 -2.78125 L 2.078125 -2.765625 L 2.8125 -2.703125 L 3.015625 -3.296875 L 3.0625 -3.5 C 3.164062 -3.644531 3.257812 -3.679688 3.34375 -3.609375 C 3.425781 -3.535156 3.5 -3.453125 3.5625 -3.359375 C 3.625 -3.265625 3.65625 -3.160156 3.65625 -3.046875 C 3.65625 -2.929688 3.617188 -2.789062 3.546875 -2.625 C 3.578125 -2.601562 3.613281 -2.582031 3.65625 -2.5625 C 3.707031 -2.550781 3.738281 -2.546875 3.75 -2.546875 C 3.875 -2.515625 3.96875 -2.472656 4.03125 -2.421875 C 4.09375 -2.378906 4.132812 -2.296875 4.15625 -2.171875 C 4.101562 -2.097656 4.035156 -2.050781 3.953125 -2.03125 C 3.878906 -2.007812 3.789062 -2.003906 3.6875 -2.015625 C 3.65625 -2.015625 3.609375 -2.015625 3.546875 -2.015625 C 3.460938 -2.015625 3.40625 -1.992188 3.375 -1.953125 C 3.34375 -1.921875 3.3125 -1.84375 3.28125 -1.71875 L 3.203125 -1.5 C 3.109375 -1.195312 3.039062 -0.953125 3 -0.765625 C 2.957031 -0.585938 2.929688 -0.398438 2.921875 -0.203125 C 2.921875 -0.191406 2.921875 -0.160156 2.921875 -0.109375 C 2.921875 -0.0546875 2.90625 -0.0195312 2.875 0 C 2.851562 0.03125 2.816406 0.046875 2.765625 0.046875 C 2.640625 0.0546875 2.5625 -0.0078125 2.53125 -0.15625 C 2.445312 -0.351562 2.40625 -0.546875 2.40625 -0.734375 C 2.40625 -0.816406 2.40625 -0.878906 2.40625 -0.921875 C 2.445312 -1.171875 2.503906 -1.488281 2.578125 -1.875 Z M 2.609375 -2.125 "/></g></g></g><g fill="#ffe11b" fill-opacity="1"><g transform="translate(96.270362, 87.868398)"><g><path d="M 1.171875 0.03125 C 0.878906 0.03125 0.644531 -0.0546875 0.46875 -0.234375 C 0.300781 -0.410156 0.21875 -0.660156 0.21875 -0.984375 C 0.21875 -1.316406 0.296875 -1.578125 0.453125 -1.765625 C 0.609375 -1.953125 0.820312 -2.046875 1.09375 -2.046875 C 1.34375 -2.046875 1.539062 -1.960938 1.6875 -1.796875 C 1.84375 -1.628906 1.921875 -1.410156 1.921875 -1.140625 L 1.921875 -0.953125 L 0.53125 -0.953125 C 0.53125 -0.710938 0.585938 -0.53125 0.703125 -0.40625 C 0.816406 -0.289062 0.976562 -0.234375 1.1875 -0.234375 C 1.40625 -0.234375 1.617188 -0.273438 1.828125 -0.359375 L 1.828125 -0.09375 C 1.722656 -0.0507812 1.617188 -0.0195312 1.515625 0 C 1.421875 0.0195312 1.304688 0.03125 1.171875 0.03125 Z M 1.09375 -1.796875 C 0.925781 -1.796875 0.796875 -1.742188 0.703125 -1.640625 C 0.609375 -1.535156 0.550781 -1.390625 0.53125 -1.203125 L 1.59375 -1.203125 C 1.59375 -1.390625 1.546875 -1.535156 1.453125 -1.640625 C 1.367188 -1.742188 1.25 -1.796875 1.09375 -1.796875 Z M 1.09375 -1.796875 "/></g></g></g><g fill="#ffe11b" fill-opacity="1"><g transform="translate(99.156194, 87.868398)"><g><path d="M 1.5625 0 L 1.5 -0.28125 L 1.484375 -0.28125 C 1.390625 -0.15625 1.289062 -0.0703125 1.1875 -0.03125 C 1.082031 0.0078125 0.957031 0.03125 0.8125 0.03125 C 0.613281 0.03125 0.457031 -0.015625 0.34375 -0.109375 C 0.226562 -0.210938 0.171875 -0.363281 0.171875 -0.5625 C 0.171875 -0.96875 0.5 -1.179688 1.15625 -1.203125 L 1.484375 -1.203125 L 1.484375 -1.328125 C 1.484375 -1.484375 1.445312 -1.597656 1.375 -1.671875 C 1.3125 -1.753906 1.207031 -1.796875 1.0625 -1.796875 C 0.894531 -1.796875 0.707031 -1.742188 0.5 -1.640625 L 0.40625 -1.875 C 0.5 -1.925781 0.601562 -1.96875 0.71875 -2 C 0.84375 -2.03125 0.960938 -2.046875 1.078125 -2.046875 C 1.316406 -2.046875 1.492188 -1.992188 1.609375 -1.890625 C 1.722656 -1.785156 1.78125 -1.613281 1.78125 -1.375 L 1.78125 0 Z M 0.875 -0.21875 C 1.0625 -0.21875 1.207031 -0.269531 1.3125 -0.375 C 1.425781 -0.476562 1.484375 -0.625 1.484375 -0.8125 L 1.484375 -0.984375 L 1.171875 -0.984375 C 0.929688 -0.972656 0.757812 -0.929688 0.65625 -0.859375 C 0.550781 -0.796875 0.5 -0.691406 0.5 -0.546875 C 0.5 -0.441406 0.53125 -0.359375 0.59375 -0.296875 C 0.65625 -0.242188 0.75 -0.21875 0.875 -0.21875 Z M 0.875 -0.21875 "/></g></g></g><g fill="#ffe11b" fill-opacity="1"><g transform="translate(102.023635, 87.868398)"><g><path d="M 1.625 -0.546875 C 1.625 -0.359375 1.550781 -0.210938 1.40625 -0.109375 C 1.269531 -0.015625 1.078125 0.03125 0.828125 0.03125 C 0.554688 0.03125 0.347656 -0.0078125 0.203125 -0.09375 L 0.203125 -0.375 C 0.296875 -0.320312 0.394531 -0.28125 0.5 -0.25 C 0.613281 -0.226562 0.722656 -0.21875 0.828125 -0.21875 C 0.992188 -0.21875 1.117188 -0.242188 1.203125 -0.296875 C 1.285156 -0.347656 1.328125 -0.425781 1.328125 -0.53125 C 1.328125 -0.601562 1.289062 -0.664062 1.21875 -0.71875 C 1.15625 -0.78125 1.023438 -0.847656 0.828125 -0.921875 C 0.640625 -0.992188 0.503906 -1.054688 0.421875 -1.109375 C 0.347656 -1.160156 0.289062 -1.21875 0.25 -1.28125 C 0.207031 -1.34375 0.1875 -1.421875 0.1875 -1.515625 C 0.1875 -1.679688 0.253906 -1.8125 0.390625 -1.90625 C 0.523438 -2 0.707031 -2.046875 0.9375 -2.046875 C 1.15625 -2.046875 1.367188 -2.003906 1.578125 -1.921875 L 1.46875 -1.671875 C 1.269531 -1.753906 1.085938 -1.796875 0.921875 -1.796875 C 0.773438 -1.796875 0.664062 -1.769531 0.59375 -1.71875 C 0.519531 -1.675781 0.484375 -1.617188 0.484375 -1.546875 C 0.484375 -1.484375 0.492188 -1.429688 0.515625 -1.390625 C 0.546875 -1.359375 0.59375 -1.328125 0.65625 -1.296875 C 0.71875 -1.265625 0.835938 -1.210938 1.015625 -1.140625 C 1.253906 -1.054688 1.414062 -0.96875 1.5 -0.875 C 1.582031 -0.789062 1.625 -0.679688 1.625 -0.546875 Z M 1.625 -0.546875 "/></g></g></g><g fill="#ffe11b" fill-opacity="1"><g transform="translate(104.593148, 87.868398)"><g><path d="M 0 -2.015625 L 0.328125 -2.015625 L 0.765625 -0.859375 C 0.867188 -0.597656 0.929688 -0.410156 0.953125 -0.296875 L 0.96875 -0.296875 C 0.976562 -0.359375 1.007812 -0.460938 1.0625 -0.609375 C 1.113281 -0.765625 1.28125 -1.234375 1.5625 -2.015625 L 1.890625 -2.015625 L 1.03125 0.28125 C 0.945312 0.507812 0.847656 0.671875 0.734375 0.765625 C 0.617188 0.859375 0.476562 0.90625 0.3125 0.90625 C 0.21875 0.90625 0.125 0.894531 0.03125 0.875 L 0.03125 0.625 C 0.09375 0.644531 0.164062 0.65625 0.25 0.65625 C 0.457031 0.65625 0.609375 0.535156 0.703125 0.296875 L 0.8125 0.015625 Z M 0 -2.015625 "/></g></g></g><g fill="#ffe11b" fill-opacity="1"><g transform="translate(107.263808, 87.868398)"><g/></g></g><g fill="#ffe11b" fill-opacity="1"><g transform="translate(109.014935, 87.868398)"><g><path d="M 1.625 -0.546875 C 1.625 -0.359375 1.550781 -0.210938 1.40625 -0.109375 C 1.269531 -0.015625 1.078125 0.03125 0.828125 0.03125 C 0.554688 0.03125 0.347656 -0.0078125 0.203125 -0.09375 L 0.203125 -0.375 C 0.296875 -0.320312 0.394531 -0.28125 0.5 -0.25 C 0.613281 -0.226562 0.722656 -0.21875 0.828125 -0.21875 C 0.992188 -0.21875 1.117188 -0.242188 1.203125 -0.296875 C 1.285156 -0.347656 1.328125 -0.425781 1.328125 -0.53125 C 1.328125 -0.601562 1.289062 -0.664062 1.21875 -0.71875 C 1.15625 -0.78125 1.023438 -0.847656 0.828125 -0.921875 C 0.640625 -0.992188 0.503906 -1.054688 0.421875 -1.109375 C 0.347656 -1.160156 0.289062 -1.21875 0.25 -1.28125 C 0.207031 -1.34375 0.1875 -1.421875 0.1875 -1.515625 C 0.1875 -1.679688 0.253906 -1.8125 0.390625 -1.90625 C 0.523438 -2 0.707031 -2.046875 0.9375 -2.046875 C 1.15625 -2.046875 1.367188 -2.003906 1.578125 -1.921875 L 1.46875 -1.671875 C 1.269531 -1.753906 1.085938 -1.796875 0.921875 -1.796875 C 0.773438 -1.796875 0.664062 -1.769531 0.59375 -1.71875 C 0.519531 -1.675781 0.484375 -1.617188 0.484375 -1.546875 C 0.484375 -1.484375 0.492188 -1.429688 0.515625 -1.390625 C 0.546875 -1.359375 0.59375 -1.328125 0.65625 -1.296875 C 0.71875 -1.265625 0.835938 -1.210938 1.015625 -1.140625 C 1.253906 -1.054688 1.414062 -0.96875 1.5 -0.875 C 1.582031 -0.789062 1.625 -0.679688 1.625 -0.546875 Z M 1.625 -0.546875 "/></g></g></g><g fill="#ffe11b" fill-opacity="1"><g transform="translate(111.584447, 87.868398)"><g><path d="M 1.703125 0 L 1.703125 -1.296875 C 1.703125 -1.460938 1.664062 -1.585938 1.59375 -1.671875 C 1.519531 -1.753906 1.398438 -1.796875 1.234375 -1.796875 C 1.023438 -1.796875 0.867188 -1.738281 0.765625 -1.625 C 0.671875 -1.507812 0.625 -1.316406 0.625 -1.046875 L 0.625 0 L 0.328125 0 L 0.328125 -2.859375 L 0.625 -2.859375 L 0.625 -2 C 0.625 -1.894531 0.617188 -1.804688 0.609375 -1.734375 L 0.625 -1.734375 C 0.6875 -1.828125 0.773438 -1.898438 0.890625 -1.953125 C 1.003906 -2.015625 1.128906 -2.046875 1.265625 -2.046875 C 1.515625 -2.046875 1.703125 -1.988281 1.828125 -1.875 C 1.953125 -1.757812 2.015625 -1.570312 2.015625 -1.3125 L 2.015625 0 Z M 1.703125 0 "/></g></g></g><g fill="#ffe11b" fill-opacity="1"><g transform="translate(114.668898, 87.868398)"><g><path d="M 2.0625 -1.015625 C 2.0625 -0.679688 1.976562 -0.421875 1.8125 -0.234375 C 1.644531 -0.0546875 1.414062 0.03125 1.125 0.03125 C 0.945312 0.03125 0.785156 -0.0078125 0.640625 -0.09375 C 0.503906 -0.175781 0.398438 -0.296875 0.328125 -0.453125 C 0.253906 -0.609375 0.21875 -0.796875 0.21875 -1.015625 C 0.21875 -1.335938 0.296875 -1.585938 0.453125 -1.765625 C 0.617188 -1.953125 0.847656 -2.046875 1.140625 -2.046875 C 1.421875 -2.046875 1.644531 -1.953125 1.8125 -1.765625 C 1.976562 -1.578125 2.0625 -1.328125 2.0625 -1.015625 Z M 0.53125 -1.015625 C 0.53125 -0.753906 0.582031 -0.554688 0.6875 -0.421875 C 0.789062 -0.285156 0.941406 -0.21875 1.140625 -0.21875 C 1.335938 -0.21875 1.488281 -0.285156 1.59375 -0.421875 C 1.695312 -0.554688 1.75 -0.753906 1.75 -1.015625 C 1.75 -1.265625 1.695312 -1.457031 1.59375 -1.59375 C 1.488281 -1.726562 1.332031 -1.796875 1.125 -1.796875 C 0.925781 -1.796875 0.773438 -1.726562 0.671875 -1.59375 C 0.578125 -1.46875 0.53125 -1.273438 0.53125 -1.015625 Z M 0.53125 -1.015625 "/></g></g></g><g fill="#ffe11b" fill-opacity="1"><g transform="translate(117.716567, 87.868398)"><g><path d="M 1.265625 0.03125 C 1.128906 0.03125 1.003906 0.0078125 0.890625 -0.03125 C 0.785156 -0.0820312 0.695312 -0.160156 0.625 -0.265625 L 0.609375 -0.265625 C 0.617188 -0.140625 0.625 -0.0234375 0.625 0.078125 L 0.625 0.90625 L 0.328125 0.90625 L 0.328125 -2.015625 L 0.578125 -2.015625 L 0.609375 -1.734375 L 0.625 -1.734375 C 0.707031 -1.847656 0.800781 -1.925781 0.90625 -1.96875 C 1.007812 -2.019531 1.128906 -2.046875 1.265625 -2.046875 C 1.523438 -2.046875 1.726562 -1.953125 1.875 -1.765625 C 2.019531 -1.585938 2.09375 -1.335938 2.09375 -1.015625 C 2.09375 -0.679688 2.019531 -0.421875 1.875 -0.234375 C 1.726562 -0.0546875 1.523438 0.03125 1.265625 0.03125 Z M 1.21875 -1.796875 C 1.007812 -1.796875 0.859375 -1.738281 0.765625 -1.625 C 0.671875 -1.507812 0.625 -1.328125 0.625 -1.078125 L 0.625 -1.015625 C 0.625 -0.722656 0.671875 -0.515625 0.765625 -0.390625 C 0.859375 -0.273438 1.007812 -0.21875 1.21875 -0.21875 C 1.394531 -0.21875 1.53125 -0.285156 1.625 -0.421875 C 1.726562 -0.566406 1.78125 -0.765625 1.78125 -1.015625 C 1.78125 -1.265625 1.726562 -1.457031 1.625 -1.59375 C 1.53125 -1.726562 1.394531 -1.796875 1.21875 -1.796875 Z M 1.21875 -1.796875 "/></g></g></g><g fill="#ffe11b" fill-opacity="1"><g transform="translate(120.79734, 87.868398)"><g><path d="M 1.265625 0.03125 C 1.128906 0.03125 1.003906 0.0078125 0.890625 -0.03125 C 0.785156 -0.0820312 0.695312 -0.160156 0.625 -0.265625 L 0.609375 -0.265625 C 0.617188 -0.140625 0.625 -0.0234375 0.625 0.078125 L 0.625 0.90625 L 0.328125 0.90625 L 0.328125 -2.015625 L 0.578125 -2.015625 L 0.609375 -1.734375 L 0.625 -1.734375 C 0.707031 -1.847656 0.800781 -1.925781 0.90625 -1.96875 C 1.007812 -2.019531 1.128906 -2.046875 1.265625 -2.046875 C 1.523438 -2.046875 1.726562 -1.953125 1.875 -1.765625 C 2.019531 -1.585938 2.09375 -1.335938 2.09375 -1.015625 C 2.09375 -0.679688 2.019531 -0.421875 1.875 -0.234375 C 1.726562 -0.0546875 1.523438 0.03125 1.265625 0.03125 Z M 1.21875 -1.796875 C 1.007812 -1.796875 0.859375 -1.738281 0.765625 -1.625 C 0.671875 -1.507812 0.625 -1.328125 0.625 -1.078125 L 0.625 -1.015625 C 0.625 -0.722656 0.671875 -0.515625 0.765625 -0.390625 C 0.859375 -0.273438 1.007812 -0.21875 1.21875 -0.21875 C 1.394531 -0.21875 1.53125 -0.285156 1.625 -0.421875 C 1.726562 -0.566406 1.78125 -0.765625 1.78125 -1.015625 C 1.78125 -1.265625 1.726562 -1.457031 1.625 -1.59375 C 1.53125 -1.726562 1.394531 -1.796875 1.21875 -1.796875 Z M 1.21875 -1.796875 "/></g></g></g><g fill="#ffe11b" fill-opacity="1"><g transform="translate(123.878112, 87.868398)"><g><path d="M 0.625 0 L 0.328125 0 L 0.328125 -2.015625 L 0.625 -2.015625 Z M 0.296875 -2.5625 C 0.296875 -2.632812 0.3125 -2.6875 0.34375 -2.71875 C 0.382812 -2.75 0.429688 -2.765625 0.484375 -2.765625 C 0.523438 -2.765625 0.5625 -2.75 0.59375 -2.71875 C 0.632812 -2.6875 0.65625 -2.632812 0.65625 -2.5625 C 0.65625 -2.488281 0.632812 -2.4375 0.59375 -2.40625 C 0.5625 -2.375 0.523438 -2.359375 0.484375 -2.359375 C 0.429688 -2.359375 0.382812 -2.375 0.34375 -2.40625 C 0.3125 -2.4375 0.296875 -2.488281 0.296875 -2.5625 Z M 0.296875 -2.5625 "/></g></g></g><g fill="#ffe11b" fill-opacity="1"><g transform="translate(125.603492, 87.868398)"><g><path d="M 1.703125 0 L 1.703125 -1.296875 C 1.703125 -1.460938 1.664062 -1.585938 1.59375 -1.671875 C 1.519531 -1.753906 1.398438 -1.796875 1.234375 -1.796875 C 1.023438 -1.796875 0.867188 -1.738281 0.765625 -1.625 C 0.671875 -1.507812 0.625 -1.320312 0.625 -1.0625 L 0.625 0 L 0.328125 0 L 0.328125 -2.015625 L 0.578125 -2.015625 L 0.625 -1.734375 L 0.640625 -1.734375 C 0.703125 -1.835938 0.785156 -1.914062 0.890625 -1.96875 C 1.003906 -2.019531 1.132812 -2.046875 1.28125 -2.046875 C 1.519531 -2.046875 1.703125 -1.988281 1.828125 -1.875 C 1.953125 -1.757812 2.015625 -1.570312 2.015625 -1.3125 L 2.015625 0 Z M 1.703125 0 "/></g></g></g><g fill="#ffe11b" fill-opacity="1"><g transform="translate(128.687943, 87.868398)"><g><path d="M 1.96875 -2.015625 L 1.96875 -1.828125 L 1.59375 -1.78125 C 1.632812 -1.738281 1.664062 -1.679688 1.6875 -1.609375 C 1.71875 -1.535156 1.734375 -1.457031 1.734375 -1.375 C 1.734375 -1.175781 1.664062 -1.015625 1.53125 -0.890625 C 1.394531 -0.773438 1.207031 -0.71875 0.96875 -0.71875 C 0.914062 -0.71875 0.863281 -0.722656 0.8125 -0.734375 C 0.675781 -0.671875 0.609375 -0.585938 0.609375 -0.484375 C 0.609375 -0.429688 0.628906 -0.390625 0.671875 -0.359375 C 0.722656 -0.328125 0.800781 -0.3125 0.90625 -0.3125 L 1.265625 -0.3125 C 1.484375 -0.3125 1.648438 -0.265625 1.765625 -0.171875 C 1.890625 -0.0859375 1.953125 0.0390625 1.953125 0.21875 C 1.953125 0.4375 1.859375 0.601562 1.671875 0.71875 C 1.492188 0.84375 1.234375 0.90625 0.890625 0.90625 C 0.628906 0.90625 0.425781 0.851562 0.28125 0.75 C 0.144531 0.65625 0.078125 0.519531 0.078125 0.34375 C 0.078125 0.21875 0.113281 0.109375 0.1875 0.015625 C 0.269531 -0.0664062 0.378906 -0.125 0.515625 -0.15625 C 0.460938 -0.175781 0.421875 -0.210938 0.390625 -0.265625 C 0.359375 -0.316406 0.34375 -0.375 0.34375 -0.4375 C 0.34375 -0.507812 0.359375 -0.570312 0.390625 -0.625 C 0.429688 -0.6875 0.492188 -0.742188 0.578125 -0.796875 C 0.472656 -0.835938 0.390625 -0.90625 0.328125 -1 C 0.265625 -1.101562 0.234375 -1.222656 0.234375 -1.359375 C 0.234375 -1.578125 0.296875 -1.742188 0.421875 -1.859375 C 0.554688 -1.984375 0.742188 -2.046875 0.984375 -2.046875 C 1.097656 -2.046875 1.195312 -2.035156 1.28125 -2.015625 Z M 0.359375 0.34375 C 0.359375 0.445312 0.40625 0.523438 0.5 0.578125 C 0.59375 0.640625 0.726562 0.671875 0.90625 0.671875 C 1.15625 0.671875 1.34375 0.628906 1.46875 0.546875 C 1.59375 0.472656 1.65625 0.375 1.65625 0.25 C 1.65625 0.132812 1.617188 0.0546875 1.546875 0.015625 C 1.484375 -0.0234375 1.359375 -0.046875 1.171875 -0.046875 L 0.8125 -0.046875 C 0.664062 -0.046875 0.550781 -0.015625 0.46875 0.046875 C 0.394531 0.117188 0.359375 0.21875 0.359375 0.34375 Z M 0.53125 -1.375 C 0.53125 -1.226562 0.566406 -1.117188 0.640625 -1.046875 C 0.722656 -0.972656 0.835938 -0.9375 0.984375 -0.9375 C 1.285156 -0.9375 1.4375 -1.082031 1.4375 -1.375 C 1.4375 -1.675781 1.285156 -1.828125 0.984375 -1.828125 C 0.835938 -1.828125 0.722656 -1.785156 0.640625 -1.703125 C 0.566406 -1.628906 0.53125 -1.519531 0.53125 -1.375 Z M 0.53125 -1.375 "/></g></g></g></svg>