<svg xmlns="http://www.w3.org/2000/svg" xmlns:xlink="http://www.w3.org/1999/xlink" width="250" zoomAndPan="magnify" viewBox="0 0 187.5 37.5" height="50" preserveAspectRatio="xMidYMid meet" version="1.0"><defs><g/><clipPath id="id1"><path d="M 25.214844 0 L 71.320312 0 L 71.320312 37.007812 L 25.214844 37.007812 Z M 25.214844 0 " clip-rule="nonzero"/></clipPath></defs><g clip-path="url(#id1)"><path fill="#ffe11b" d="M 56.375 30.039062 C 58.519531 30.039062 60.257812 31.792969 60.257812 33.957031 C 60.257812 36.121094 58.519531 37.875 56.375 37.875 C 54.234375 37.875 52.496094 36.121094 52.496094 33.957031 C 52.496094 31.792969 54.234375 30.039062 56.375 30.039062 Z M 71.300781 2.105469 C 71.3125 2.203125 71.316406 2.277344 71.3125 2.375 C 71.304688 2.429688 71.300781 2.480469 71.289062 2.535156 C 71.277344 2.589844 71.265625 2.648438 71.25 2.703125 C 71.210938 2.847656 71.171875 2.996094 71.125 3.136719 C 70.976562 3.617188 70.832031 4.125 70.664062 4.59375 C 70.152344 6.097656 69.613281 7.570312 69.023438 9.046875 C 68.359375 10.675781 67.679688 12.214844 66.808594 13.746094 C 66.433594 14.390625 66.066406 14.96875 65.589844 15.542969 C 65.175781 16.035156 64.789062 16.414062 64.1875 16.671875 C 63.109375 17.015625 61.875 17.09375 60.75 17.152344 C 53.320312 17.320312 45.273438 16.539062 38.277344 16.839844 C 37.972656 16.796875 37.738281 16.757812 37.566406 16.71875 C 34.804688 16.085938 48.429688 16.011719 48.472656 16.011719 C 51.589844 15.972656 60.726562 15.992188 63.46875 14.90625 C 63.691406 14.78125 63.914062 14.507812 64.074219 14.308594 C 64.445312 13.8125 64.734375 13.304688 65.023438 12.761719 C 65.609375 11.617188 65.945312 10.882812 66.402344 9.703125 C 61.667969 9.6875 57.363281 9.878906 52.644531 10.046875 C 48.765625 10.1875 44.667969 10.226562 42.222656 9.910156 C 42.085938 9.898438 41.914062 9.859375 41.785156 9.804688 C 41.582031 9.714844 41.453125 9.613281 41.332031 9.445312 C 41.28125 9.328125 41.289062 9.238281 41.328125 9.164062 C 41.4375 8.976562 41.789062 8.90625 42.042969 8.804688 C 43.945312 8.199219 46.378906 8.058594 48.445312 8 C 50.761719 7.964844 66.582031 8.734375 67.121094 7.792969 C 67.648438 6.34375 67.964844 5.351562 68.410156 3.875 C 68.4375 3.785156 68.464844 3.6875 68.492188 3.597656 C 65.925781 3.671875 63.351562 3.726562 60.789062 3.753906 C 59.605469 3.765625 43.453125 3.929688 41.085938 2.679688 C 40.898438 2.582031 40.796875 2.472656 40.796875 2.355469 C 40.929688 2.066406 41.683594 1.929688 41.953125 1.871094 C 48.746094 0.796875 62.839844 1.125 70.125 1.109375 C 70.371094 1.109375 70.5625 1.160156 70.773438 1.292969 C 70.933594 1.398438 71.039062 1.503906 71.140625 1.667969 C 71.226562 1.816406 71.273438 1.9375 71.300781 2.105469 Z M 41.167969 22.152344 C 44.121094 22.765625 56.738281 22.632812 60.792969 22.835938 C 61.945312 22.910156 62.917969 23.078125 63.953125 23.617188 C 64.367188 23.847656 64.671875 24.066406 64.980469 24.429688 C 65.277344 24.792969 65.4375 25.117188 65.5 25.589844 C 65.539062 26.074219 65.449219 26.429688 65.210938 26.84375 C 64.953125 27.253906 64.671875 27.507812 64.277344 27.777344 C 63.941406 27.988281 63.632812 28.136719 63.265625 28.28125 C 62.484375 28.570312 61.777344 28.726562 60.957031 28.851562 C 53.378906 29.398438 47.421875 28.5 40.152344 28.304688 C 39.652344 28.226562 39.273438 28.152344 38.996094 28.085938 C 35.125 27.167969 51.476562 27.710938 52.316406 27.699219 C 55.160156 27.648438 57.84375 27.535156 60.640625 26.980469 C 61.472656 26.8125 62.402344 26.585938 63.105469 26.078125 C 63.167969 26.027344 63.269531 25.949219 63.335938 25.871094 C 63.222656 25.765625 63.089844 25.691406 62.953125 25.625 C 62.242188 25.3125 61.492188 25.238281 60.722656 25.214844 C 55.902344 25.164062 44.691406 25.742188 40.492188 25.128906 C 38.714844 24.691406 37.5625 24.125 36.328125 22.742188 C 35.417969 21.605469 34.917969 20.628906 34.398438 19.292969 C 34.078125 18.472656 33.777344 17.585938 33.535156 16.742188 C 32.523438 13.203125 31.71875 9.539062 30.882812 5.957031 C 30.632812 4.917969 30.359375 4.078125 29.808594 3.164062 C 29.410156 2.59375 29.035156 2.191406 28.433594 1.84375 C 28.1875 1.726562 27.984375 1.652344 27.714844 1.601562 C 27.460938 1.566406 27.257812 1.566406 27.003906 1.601562 C 26.738281 1.652344 26.546875 1.722656 26.308594 1.84375 C 26.191406 1.90625 26.066406 2.011719 25.933594 2.105469 C 25.761719 2.226562 25.582031 2.324219 25.402344 2.273438 C 25.222656 1.988281 25.515625 1.429688 25.667969 1.191406 C 25.910156 0.847656 26.160156 0.632812 26.519531 0.421875 C 26.570312 0.390625 26.621094 0.363281 26.675781 0.335938 C 27.011719 0.175781 27.300781 0.0976562 27.671875 0.0507812 C 28.140625 0 28.507812 0.03125 28.96875 0.140625 C 30.039062 0.421875 30.746094 0.945312 31.492188 1.753906 C 32.433594 2.824219 32.917969 3.878906 33.355469 5.230469 C 34.4375 8.746094 35.40625 12.285156 36.484375 15.792969 C 37.007812 17.4375 37.597656 19.332031 38.667969 20.707031 C 39.414062 21.566406 40.082031 21.863281 41.167969 22.152344 Z M 43.820312 30.039062 C 45.964844 30.039062 47.699219 31.792969 47.699219 33.957031 C 47.699219 36.121094 45.964844 37.875 43.820312 37.875 C 41.675781 37.875 39.9375 36.121094 39.9375 33.957031 C 39.9375 31.792969 41.675781 30.039062 43.820312 30.039062 " fill-opacity="1" fill-rule="evenodd"/></g><g fill="#ffe11b" fill-opacity="1"><g transform="translate(71.622612, 11.899629)"><g><path d="M 5.75 -4.65625 C 5.539062 -4.644531 5.390625 -4.640625 5.296875 -4.640625 C 4.671875 -4.597656 4.1875 -4.550781 3.84375 -4.5 C 3.65625 -4.457031 3.425781 -4.226562 3.15625 -3.8125 C 2.925781 -3.445312 2.769531 -2.878906 2.6875 -2.109375 L 2.546875 -1.65625 C 2.503906 -1.5 2.441406 -1.367188 2.359375 -1.265625 C 2.304688 -1.203125 2.238281 -1.148438 2.15625 -1.109375 C 2.070312 -1.078125 1.988281 -1.0625 1.90625 -1.0625 C 1.945312 -1.0625 1.929688 -1.109375 1.859375 -1.203125 C 1.691406 -1.429688 1.566406 -1.613281 1.484375 -1.75 C 1.398438 -1.894531 1.359375 -2.054688 1.359375 -2.234375 C 1.359375 -2.304688 1.375 -2.394531 1.40625 -2.5 C 1.445312 -2.625 1.472656 -2.75 1.484375 -2.875 C 1.492188 -2.925781 1.503906 -3 1.515625 -3.09375 C 1.535156 -3.195312 1.5625 -3.28125 1.59375 -3.34375 C 1.613281 -3.425781 1.625 -3.5 1.625 -3.5625 C 1.625 -3.75 1.53125 -3.925781 1.34375 -4.09375 C 1.050781 -4.34375 0.90625 -4.570312 0.90625 -4.78125 C 0.90625 -5.007812 1.09375 -5.226562 1.46875 -5.4375 C 1.5 -5.457031 1.546875 -5.488281 1.609375 -5.53125 C 1.671875 -5.570312 1.726562 -5.597656 1.78125 -5.609375 C 1.957031 -5.648438 2.085938 -5.726562 2.171875 -5.84375 C 2.253906 -5.957031 2.320312 -6.125 2.375 -6.34375 C 2.539062 -6.90625 2.722656 -7.507812 2.921875 -8.15625 L 3.0625 -8.609375 C 3.070312 -8.671875 3.117188 -8.78125 3.203125 -8.9375 C 3.566406 -8.945312 3.828125 -8.84375 3.984375 -8.625 C 4.148438 -8.414062 4.234375 -8.144531 4.234375 -7.8125 C 4.234375 -7.757812 4.222656 -7.679688 4.203125 -7.578125 L 4.09375 -7.0625 L 4.015625 -6.78125 L 3.890625 -6.109375 L 4.5625 -6.0625 L 6.171875 -5.921875 L 6.609375 -7.265625 L 6.71875 -7.6875 C 6.957031 -8.007812 7.171875 -8.085938 7.359375 -7.921875 C 7.535156 -7.753906 7.6875 -7.570312 7.8125 -7.375 C 7.945312 -7.175781 8.015625 -6.953125 8.015625 -6.703125 C 8.015625 -6.453125 7.945312 -6.132812 7.8125 -5.75 C 7.875 -5.707031 7.953125 -5.671875 8.046875 -5.640625 C 8.140625 -5.617188 8.203125 -5.601562 8.234375 -5.59375 C 8.503906 -5.507812 8.707031 -5.414062 8.84375 -5.3125 C 8.988281 -5.21875 9.082031 -5.039062 9.125 -4.78125 C 9.019531 -4.613281 8.878906 -4.503906 8.703125 -4.453125 C 8.535156 -4.398438 8.335938 -4.390625 8.109375 -4.421875 C 8.023438 -4.429688 7.914062 -4.4375 7.78125 -4.4375 C 7.59375 -4.4375 7.46875 -4.394531 7.40625 -4.3125 C 7.351562 -4.238281 7.28125 -4.0625 7.1875 -3.78125 L 7.046875 -3.28125 C 6.835938 -2.625 6.6875 -2.09375 6.59375 -1.6875 C 6.507812 -1.289062 6.453125 -0.878906 6.421875 -0.453125 C 6.421875 -0.410156 6.414062 -0.335938 6.40625 -0.234375 C 6.40625 -0.128906 6.378906 -0.046875 6.328125 0.015625 C 6.273438 0.078125 6.195312 0.109375 6.09375 0.109375 C 5.8125 0.140625 5.640625 -0.00390625 5.578125 -0.328125 C 5.367188 -0.773438 5.265625 -1.207031 5.265625 -1.625 C 5.265625 -1.800781 5.273438 -1.9375 5.296875 -2.03125 C 5.390625 -2.582031 5.515625 -3.273438 5.671875 -4.109375 Z M 5.75 -4.65625 "/></g></g></g><g fill="#ffe11b" fill-opacity="1"><g transform="translate(81.043168, 11.899629)"><g><path d="M 1.40625 -6.40625 C 1.726562 -6.957031 2.238281 -7.441406 2.9375 -7.859375 C 3.488281 -8.191406 4.128906 -8.359375 4.859375 -8.359375 C 5.378906 -8.359375 5.878906 -8.269531 6.359375 -8.09375 C 6.847656 -7.914062 7.25 -7.671875 7.5625 -7.359375 C 7.675781 -7.242188 7.796875 -7.140625 7.921875 -7.046875 C 8.117188 -6.867188 8.234375 -6.757812 8.265625 -6.71875 C 8.691406 -6.269531 8.90625 -5.773438 8.90625 -5.234375 C 8.90625 -4.804688 8.769531 -4.375 8.5 -3.9375 C 8.132812 -3.351562 7.757812 -2.835938 7.375 -2.390625 C 7 -1.953125 6.570312 -1.578125 6.09375 -1.265625 C 5.289062 -0.722656 4.519531 -0.453125 3.78125 -0.453125 C 3.5625 -0.453125 3.34375 -0.476562 3.125 -0.53125 C 2.382812 -0.695312 1.785156 -1.046875 1.328125 -1.578125 C 0.867188 -2.109375 0.640625 -2.710938 0.640625 -3.390625 C 0.640625 -3.910156 0.78125 -4.425781 1.0625 -4.9375 C 1.082031 -4.976562 1.117188 -5.019531 1.171875 -5.0625 C 1.234375 -5.101562 1.28125 -5.140625 1.3125 -5.171875 L 1.609375 -5.03125 L 1.890625 -4.890625 C 2.148438 -4.742188 2.316406 -4.625 2.390625 -4.53125 C 2.472656 -4.4375 2.515625 -4.304688 2.515625 -4.140625 C 2.515625 -4.015625 2.503906 -3.851562 2.484375 -3.65625 C 2.472656 -3.582031 2.46875 -3.472656 2.46875 -3.328125 C 2.46875 -3.015625 2.503906 -2.632812 2.578125 -2.1875 C 2.597656 -2.0625 2.648438 -1.960938 2.734375 -1.890625 C 2.828125 -1.828125 2.941406 -1.796875 3.078125 -1.796875 C 3.148438 -1.796875 3.207031 -1.800781 3.25 -1.8125 C 3.644531 -1.882812 3.984375 -1.972656 4.265625 -2.078125 C 4.554688 -2.179688 4.816406 -2.332031 5.046875 -2.53125 C 5.460938 -2.894531 5.828125 -3.242188 6.140625 -3.578125 C 6.460938 -3.921875 6.742188 -4.289062 6.984375 -4.6875 C 7.140625 -4.957031 7.21875 -5.21875 7.21875 -5.46875 C 7.21875 -5.6875 7.171875 -5.894531 7.078125 -6.09375 C 6.984375 -6.300781 6.847656 -6.53125 6.671875 -6.78125 C 6.378906 -7.195312 5.992188 -7.40625 5.515625 -7.40625 C 5.347656 -7.40625 5.171875 -7.378906 4.984375 -7.328125 C 4.929688 -7.304688 4.660156 -7.21875 4.171875 -7.0625 C 4.117188 -7.039062 4.066406 -7.019531 4.015625 -7 C 3.960938 -6.988281 3.90625 -6.972656 3.84375 -6.953125 L 2.390625 -6.53125 C 2.203125 -6.46875 1.914062 -6.390625 1.53125 -6.296875 Z M 1.40625 -6.40625 "/></g></g></g><g fill="#ffe11b" fill-opacity="1"><g transform="translate(90.323684, 11.899629)"><g><path d="M 3.890625 -4.390625 C 3.910156 -4.742188 3.929688 -5.066406 3.953125 -5.359375 C 3.984375 -5.648438 4.007812 -5.914062 4.03125 -6.15625 L 4.140625 -7.171875 C 3.472656 -7.066406 2.769531 -6.867188 2.03125 -6.578125 C 1.84375 -6.515625 1.675781 -6.484375 1.53125 -6.484375 C 1.300781 -6.484375 1.085938 -6.546875 0.890625 -6.671875 C 0.703125 -6.796875 0.554688 -6.984375 0.453125 -7.234375 C 0.492188 -7.421875 0.582031 -7.5625 0.71875 -7.65625 C 0.863281 -7.75 1.0625 -7.84375 1.3125 -7.9375 C 2.488281 -8.363281 3.835938 -8.570312 5.359375 -8.5625 C 6.078125 -8.5625 6.828125 -8.53125 7.609375 -8.46875 C 8.398438 -8.414062 8.863281 -8.382812 9 -8.375 L 9.890625 -8.3125 C 9.929688 -8.3125 9.988281 -8.3125 10.0625 -8.3125 C 10.144531 -8.3125 10.210938 -8.289062 10.265625 -8.25 C 10.316406 -8.21875 10.34375 -8.160156 10.34375 -8.078125 C 10.34375 -7.859375 10.1875 -7.734375 9.875 -7.703125 C 9.113281 -7.617188 8.570312 -7.5625 8.25 -7.53125 C 7.914062 -7.507812 7.664062 -7.488281 7.5 -7.46875 C 6.832031 -7.425781 6.335938 -7.394531 6.015625 -7.375 C 5.804688 -7.351562 5.660156 -7.328125 5.578125 -7.296875 C 5.503906 -7.273438 5.457031 -7.226562 5.4375 -7.15625 C 5.414062 -7.082031 5.398438 -6.929688 5.390625 -6.703125 C 5.347656 -6.160156 5.257812 -5.238281 5.125 -3.9375 C 4.988281 -2.757812 4.898438 -1.941406 4.859375 -1.484375 C 4.859375 -1.242188 4.804688 -0.945312 4.703125 -0.59375 C 4.628906 -0.375 4.570312 -0.226562 4.53125 -0.15625 C 4.488281 -0.0820312 4.425781 -0.0351562 4.34375 -0.015625 C 4.269531 -0.00390625 4.117188 -0.00390625 3.890625 -0.015625 C 3.734375 -0.015625 3.609375 -0.0507812 3.515625 -0.125 C 3.429688 -0.195312 3.390625 -0.296875 3.390625 -0.421875 C 3.390625 -0.441406 3.394531 -0.492188 3.40625 -0.578125 C 3.59375 -1.316406 3.753906 -2.585938 3.890625 -4.390625 Z M 3.890625 -4.390625 "/></g></g></g><g fill="#ffe11b" fill-opacity="1"><g transform="translate(100.011575, 11.899629)"><g><path d="M 1.015625 -3.90625 C 1.003906 -3.96875 1 -4.066406 1 -4.203125 C 1 -4.535156 1.03125 -4.859375 1.09375 -5.171875 C 1.164062 -5.484375 1.269531 -5.828125 1.40625 -6.203125 C 1.53125 -6.546875 1.769531 -6.890625 2.125 -7.234375 C 2.476562 -7.585938 2.875 -7.875 3.3125 -8.09375 C 3.757812 -8.320312 4.160156 -8.4375 4.515625 -8.4375 C 4.878906 -8.4375 5.234375 -8.300781 5.578125 -8.03125 C 5.929688 -7.769531 6.15625 -7.46875 6.25 -7.125 C 6.269531 -7.03125 6.28125 -6.960938 6.28125 -6.921875 C 6.28125 -6.796875 6.242188 -6.703125 6.171875 -6.640625 C 6.097656 -6.578125 6.003906 -6.546875 5.890625 -6.546875 C 5.796875 -6.546875 5.722656 -6.550781 5.671875 -6.5625 C 5.640625 -6.5625 5.597656 -6.578125 5.546875 -6.609375 C 5.304688 -6.742188 5.070312 -6.8125 4.84375 -6.8125 C 4.40625 -6.8125 3.972656 -6.585938 3.546875 -6.140625 C 2.828125 -5.378906 2.46875 -4.476562 2.46875 -3.4375 C 2.46875 -3.0625 2.503906 -2.703125 2.578125 -2.359375 C 2.671875 -1.960938 2.820312 -1.671875 3.03125 -1.484375 C 3.25 -1.304688 3.539062 -1.21875 3.90625 -1.21875 C 4.03125 -1.21875 4.171875 -1.234375 4.328125 -1.265625 C 4.859375 -1.328125 5.347656 -1.488281 5.796875 -1.75 C 6.253906 -2.007812 6.753906 -2.351562 7.296875 -2.78125 C 7.421875 -2.882812 7.644531 -3.097656 7.96875 -3.421875 L 8.21875 -3.6875 C 8.332031 -3.800781 8.429688 -3.878906 8.515625 -3.921875 C 8.597656 -3.972656 8.671875 -4 8.734375 -4 C 8.847656 -4 8.984375 -3.941406 9.140625 -3.828125 C 9.316406 -3.703125 9.40625 -3.539062 9.40625 -3.34375 C 9.40625 -3.207031 9.359375 -3.082031 9.265625 -2.96875 C 9.234375 -2.90625 9.140625 -2.765625 8.984375 -2.546875 C 8.835938 -2.335938 8.691406 -2.144531 8.546875 -1.96875 C 8.398438 -1.800781 8.253906 -1.660156 8.109375 -1.546875 C 7.328125 -0.859375 6.515625 -0.394531 5.671875 -0.15625 C 5.296875 -0.0507812 4.921875 0 4.546875 0 C 3.859375 0 3.25 -0.171875 2.71875 -0.515625 C 2.1875 -0.867188 1.769531 -1.328125 1.46875 -1.890625 C 1.175781 -2.453125 1.023438 -3.039062 1.015625 -3.65625 Z M 1.015625 -3.90625 "/></g></g></g><g fill="#ffe11b" fill-opacity="1"><g transform="translate(109.67401, 11.899629)"><g><path d="M 5.75 -4.65625 C 5.539062 -4.644531 5.390625 -4.640625 5.296875 -4.640625 C 4.671875 -4.597656 4.1875 -4.550781 3.84375 -4.5 C 3.65625 -4.457031 3.425781 -4.226562 3.15625 -3.8125 C 2.925781 -3.445312 2.769531 -2.878906 2.6875 -2.109375 L 2.546875 -1.65625 C 2.503906 -1.5 2.441406 -1.367188 2.359375 -1.265625 C 2.304688 -1.203125 2.238281 -1.148438 2.15625 -1.109375 C 2.070312 -1.078125 1.988281 -1.0625 1.90625 -1.0625 C 1.945312 -1.0625 1.929688 -1.109375 1.859375 -1.203125 C 1.691406 -1.429688 1.566406 -1.613281 1.484375 -1.75 C 1.398438 -1.894531 1.359375 -2.054688 1.359375 -2.234375 C 1.359375 -2.304688 1.375 -2.394531 1.40625 -2.5 C 1.445312 -2.625 1.472656 -2.75 1.484375 -2.875 C 1.492188 -2.925781 1.503906 -3 1.515625 -3.09375 C 1.535156 -3.195312 1.5625 -3.28125 1.59375 -3.34375 C 1.613281 -3.425781 1.625 -3.5 1.625 -3.5625 C 1.625 -3.75 1.53125 -3.925781 1.34375 -4.09375 C 1.050781 -4.34375 0.90625 -4.570312 0.90625 -4.78125 C 0.90625 -5.007812 1.09375 -5.226562 1.46875 -5.4375 C 1.5 -5.457031 1.546875 -5.488281 1.609375 -5.53125 C 1.671875 -5.570312 1.726562 -5.597656 1.78125 -5.609375 C 1.957031 -5.648438 2.085938 -5.726562 2.171875 -5.84375 C 2.253906 -5.957031 2.320312 -6.125 2.375 -6.34375 C 2.539062 -6.90625 2.722656 -7.507812 2.921875 -8.15625 L 3.0625 -8.609375 C 3.070312 -8.671875 3.117188 -8.78125 3.203125 -8.9375 C 3.566406 -8.945312 3.828125 -8.84375 3.984375 -8.625 C 4.148438 -8.414062 4.234375 -8.144531 4.234375 -7.8125 C 4.234375 -7.757812 4.222656 -7.679688 4.203125 -7.578125 L 4.09375 -7.0625 L 4.015625 -6.78125 L 3.890625 -6.109375 L 4.5625 -6.0625 L 6.171875 -5.921875 L 6.609375 -7.265625 L 6.71875 -7.6875 C 6.957031 -8.007812 7.171875 -8.085938 7.359375 -7.921875 C 7.535156 -7.753906 7.6875 -7.570312 7.8125 -7.375 C 7.945312 -7.175781 8.015625 -6.953125 8.015625 -6.703125 C 8.015625 -6.453125 7.945312 -6.132812 7.8125 -5.75 C 7.875 -5.707031 7.953125 -5.671875 8.046875 -5.640625 C 8.140625 -5.617188 8.203125 -5.601562 8.234375 -5.59375 C 8.503906 -5.507812 8.707031 -5.414062 8.84375 -5.3125 C 8.988281 -5.21875 9.082031 -5.039062 9.125 -4.78125 C 9.019531 -4.613281 8.878906 -4.503906 8.703125 -4.453125 C 8.535156 -4.398438 8.335938 -4.390625 8.109375 -4.421875 C 8.023438 -4.429688 7.914062 -4.4375 7.78125 -4.4375 C 7.59375 -4.4375 7.46875 -4.394531 7.40625 -4.3125 C 7.351562 -4.238281 7.28125 -4.0625 7.1875 -3.78125 L 7.046875 -3.28125 C 6.835938 -2.625 6.6875 -2.09375 6.59375 -1.6875 C 6.507812 -1.289062 6.453125 -0.878906 6.421875 -0.453125 C 6.421875 -0.410156 6.414062 -0.335938 6.40625 -0.234375 C 6.40625 -0.128906 6.378906 -0.046875 6.328125 0.015625 C 6.273438 0.078125 6.195312 0.109375 6.09375 0.109375 C 5.8125 0.140625 5.640625 -0.00390625 5.578125 -0.328125 C 5.367188 -0.773438 5.265625 -1.207031 5.265625 -1.625 C 5.265625 -1.800781 5.273438 -1.9375 5.296875 -2.03125 C 5.390625 -2.582031 5.515625 -3.273438 5.671875 -4.109375 Z M 5.75 -4.65625 "/></g></g></g><g fill="#ffe11b" fill-opacity="1"><g transform="translate(119.094565, 11.899629)"><g><path d="M 4.65625 -3.46875 C 4.5 -3.414062 4.367188 -3.390625 4.265625 -3.390625 C 4.078125 -3.390625 3.898438 -3.453125 3.734375 -3.578125 C 3.566406 -3.703125 3.429688 -3.875 3.328125 -4.09375 L 3.6875 -4.328125 C 4.09375 -4.597656 4.390625 -4.804688 4.578125 -4.953125 C 5.234375 -5.460938 5.804688 -5.9375 6.296875 -6.375 C 6.390625 -6.457031 6.5 -6.613281 6.625 -6.84375 L 6.796875 -7.15625 L 6.578125 -7.265625 C 6.546875 -7.273438 6.484375 -7.300781 6.390625 -7.34375 C 6.304688 -7.382812 6.234375 -7.40625 6.171875 -7.40625 C 5.429688 -7.488281 4.601562 -7.554688 3.6875 -7.609375 C 3.40625 -7.640625 3.21875 -7.484375 3.125 -7.140625 L 2.0625 -2.1875 C 2 -1.9375 1.953125 -1.710938 1.921875 -1.515625 C 1.890625 -1.328125 1.859375 -1.171875 1.828125 -1.046875 L 1.71875 -0.46875 C 1.6875 -0.332031 1.628906 -0.222656 1.546875 -0.140625 C 1.472656 -0.0664062 1.363281 -0.0234375 1.21875 -0.015625 L 1.0625 0 C 0.894531 0 0.78125 -0.0351562 0.71875 -0.109375 C 0.65625 -0.191406 0.628906 -0.328125 0.640625 -0.515625 L 0.65625 -1.03125 C 0.707031 -2.03125 0.773438 -2.78125 0.859375 -3.28125 C 0.898438 -3.644531 0.96875 -4.046875 1.0625 -4.484375 C 1.164062 -4.929688 1.238281 -5.222656 1.28125 -5.359375 C 1.394531 -5.847656 1.476562 -6.222656 1.53125 -6.484375 L 0.859375 -6.59375 C 0.765625 -6.8125 0.71875 -7.003906 0.71875 -7.171875 C 0.71875 -7.441406 0.84375 -7.71875 1.09375 -8 C 1.269531 -8.195312 1.476562 -8.359375 1.71875 -8.484375 C 1.96875 -8.617188 2.226562 -8.707031 2.5 -8.75 C 2.875 -8.789062 3.210938 -8.8125 3.515625 -8.8125 C 4.679688 -8.8125 5.863281 -8.566406 7.0625 -8.078125 C 7.195312 -8.015625 7.335938 -7.921875 7.484375 -7.796875 C 7.628906 -7.671875 7.722656 -7.59375 7.765625 -7.5625 C 8.097656 -7.28125 8.265625 -6.988281 8.265625 -6.6875 C 8.265625 -6.476562 8.203125 -6.253906 8.078125 -6.015625 C 8.003906 -5.867188 7.890625 -5.703125 7.734375 -5.515625 C 6.941406 -4.648438 5.914062 -3.96875 4.65625 -3.46875 Z M 4.65625 -3.46875 "/></g></g></g><g fill="#ffe11b" fill-opacity="1"><g transform="translate(126.669199, 11.899629)"><g><path d="M 1.40625 -6.40625 C 1.726562 -6.957031 2.238281 -7.441406 2.9375 -7.859375 C 3.488281 -8.191406 4.128906 -8.359375 4.859375 -8.359375 C 5.378906 -8.359375 5.878906 -8.269531 6.359375 -8.09375 C 6.847656 -7.914062 7.25 -7.671875 7.5625 -7.359375 C 7.675781 -7.242188 7.796875 -7.140625 7.921875 -7.046875 C 8.117188 -6.867188 8.234375 -6.757812 8.265625 -6.71875 C 8.691406 -6.269531 8.90625 -5.773438 8.90625 -5.234375 C 8.90625 -4.804688 8.769531 -4.375 8.5 -3.9375 C 8.132812 -3.351562 7.757812 -2.835938 7.375 -2.390625 C 7 -1.953125 6.570312 -1.578125 6.09375 -1.265625 C 5.289062 -0.722656 4.519531 -0.453125 3.78125 -0.453125 C 3.5625 -0.453125 3.34375 -0.476562 3.125 -0.53125 C 2.382812 -0.695312 1.785156 -1.046875 1.328125 -1.578125 C 0.867188 -2.109375 0.640625 -2.710938 0.640625 -3.390625 C 0.640625 -3.910156 0.78125 -4.425781 1.0625 -4.9375 C 1.082031 -4.976562 1.117188 -5.019531 1.171875 -5.0625 C 1.234375 -5.101562 1.28125 -5.140625 1.3125 -5.171875 L 1.609375 -5.03125 L 1.890625 -4.890625 C 2.148438 -4.742188 2.316406 -4.625 2.390625 -4.53125 C 2.472656 -4.4375 2.515625 -4.304688 2.515625 -4.140625 C 2.515625 -4.015625 2.503906 -3.851562 2.484375 -3.65625 C 2.472656 -3.582031 2.46875 -3.472656 2.46875 -3.328125 C 2.46875 -3.015625 2.503906 -2.632812 2.578125 -2.1875 C 2.597656 -2.0625 2.648438 -1.960938 2.734375 -1.890625 C 2.828125 -1.828125 2.941406 -1.796875 3.078125 -1.796875 C 3.148438 -1.796875 3.207031 -1.800781 3.25 -1.8125 C 3.644531 -1.882812 3.984375 -1.972656 4.265625 -2.078125 C 4.554688 -2.179688 4.816406 -2.332031 5.046875 -2.53125 C 5.460938 -2.894531 5.828125 -3.242188 6.140625 -3.578125 C 6.460938 -3.921875 6.742188 -4.289062 6.984375 -4.6875 C 7.140625 -4.957031 7.21875 -5.21875 7.21875 -5.46875 C 7.21875 -5.6875 7.171875 -5.894531 7.078125 -6.09375 C 6.984375 -6.300781 6.847656 -6.53125 6.671875 -6.78125 C 6.378906 -7.195312 5.992188 -7.40625 5.515625 -7.40625 C 5.347656 -7.40625 5.171875 -7.378906 4.984375 -7.328125 C 4.929688 -7.304688 4.660156 -7.21875 4.171875 -7.0625 C 4.117188 -7.039062 4.066406 -7.019531 4.015625 -7 C 3.960938 -6.988281 3.90625 -6.972656 3.84375 -6.953125 L 2.390625 -6.53125 C 2.203125 -6.46875 1.914062 -6.390625 1.53125 -6.296875 Z M 1.40625 -6.40625 "/></g></g></g><g fill="#ffe11b" fill-opacity="1"><g transform="translate(135.949715, 11.899629)"><g><path d="M 3.890625 -4.390625 C 3.910156 -4.742188 3.929688 -5.066406 3.953125 -5.359375 C 3.984375 -5.648438 4.007812 -5.914062 4.03125 -6.15625 L 4.140625 -7.171875 C 3.472656 -7.066406 2.769531 -6.867188 2.03125 -6.578125 C 1.84375 -6.515625 1.675781 -6.484375 1.53125 -6.484375 C 1.300781 -6.484375 1.085938 -6.546875 0.890625 -6.671875 C 0.703125 -6.796875 0.554688 -6.984375 0.453125 -7.234375 C 0.492188 -7.421875 0.582031 -7.5625 0.71875 -7.65625 C 0.863281 -7.75 1.0625 -7.84375 1.3125 -7.9375 C 2.488281 -8.363281 3.835938 -8.570312 5.359375 -8.5625 C 6.078125 -8.5625 6.828125 -8.53125 7.609375 -8.46875 C 8.398438 -8.414062 8.863281 -8.382812 9 -8.375 L 9.890625 -8.3125 C 9.929688 -8.3125 9.988281 -8.3125 10.0625 -8.3125 C 10.144531 -8.3125 10.210938 -8.289062 10.265625 -8.25 C 10.316406 -8.21875 10.34375 -8.160156 10.34375 -8.078125 C 10.34375 -7.859375 10.1875 -7.734375 9.875 -7.703125 C 9.113281 -7.617188 8.570312 -7.5625 8.25 -7.53125 C 7.914062 -7.507812 7.664062 -7.488281 7.5 -7.46875 C 6.832031 -7.425781 6.335938 -7.394531 6.015625 -7.375 C 5.804688 -7.351562 5.660156 -7.328125 5.578125 -7.296875 C 5.503906 -7.273438 5.457031 -7.226562 5.4375 -7.15625 C 5.414062 -7.082031 5.398438 -6.929688 5.390625 -6.703125 C 5.347656 -6.160156 5.257812 -5.238281 5.125 -3.9375 C 4.988281 -2.757812 4.898438 -1.941406 4.859375 -1.484375 C 4.859375 -1.242188 4.804688 -0.945312 4.703125 -0.59375 C 4.628906 -0.375 4.570312 -0.226562 4.53125 -0.15625 C 4.488281 -0.0820312 4.425781 -0.0351562 4.34375 -0.015625 C 4.269531 -0.00390625 4.117188 -0.00390625 3.890625 -0.015625 C 3.734375 -0.015625 3.609375 -0.0507812 3.515625 -0.125 C 3.429688 -0.195312 3.390625 -0.296875 3.390625 -0.421875 C 3.390625 -0.441406 3.394531 -0.492188 3.40625 -0.578125 C 3.59375 -1.316406 3.753906 -2.585938 3.890625 -4.390625 Z M 3.890625 -4.390625 "/></g></g></g><g fill="#ffe11b" fill-opacity="1"><g transform="translate(145.637607, 11.899629)"><g><path d="M 1.015625 -3.90625 C 1.003906 -3.96875 1 -4.066406 1 -4.203125 C 1 -4.535156 1.03125 -4.859375 1.09375 -5.171875 C 1.164062 -5.484375 1.269531 -5.828125 1.40625 -6.203125 C 1.53125 -6.546875 1.769531 -6.890625 2.125 -7.234375 C 2.476562 -7.585938 2.875 -7.875 3.3125 -8.09375 C 3.757812 -8.320312 4.160156 -8.4375 4.515625 -8.4375 C 4.878906 -8.4375 5.234375 -8.300781 5.578125 -8.03125 C 5.929688 -7.769531 6.15625 -7.46875 6.25 -7.125 C 6.269531 -7.03125 6.28125 -6.960938 6.28125 -6.921875 C 6.28125 -6.796875 6.242188 -6.703125 6.171875 -6.640625 C 6.097656 -6.578125 6.003906 -6.546875 5.890625 -6.546875 C 5.796875 -6.546875 5.722656 -6.550781 5.671875 -6.5625 C 5.640625 -6.5625 5.597656 -6.578125 5.546875 -6.609375 C 5.304688 -6.742188 5.070312 -6.8125 4.84375 -6.8125 C 4.40625 -6.8125 3.972656 -6.585938 3.546875 -6.140625 C 2.828125 -5.378906 2.46875 -4.476562 2.46875 -3.4375 C 2.46875 -3.0625 2.503906 -2.703125 2.578125 -2.359375 C 2.671875 -1.960938 2.820312 -1.671875 3.03125 -1.484375 C 3.25 -1.304688 3.539062 -1.21875 3.90625 -1.21875 C 4.03125 -1.21875 4.171875 -1.234375 4.328125 -1.265625 C 4.859375 -1.328125 5.347656 -1.488281 5.796875 -1.75 C 6.253906 -2.007812 6.753906 -2.351562 7.296875 -2.78125 C 7.421875 -2.882812 7.644531 -3.097656 7.96875 -3.421875 L 8.21875 -3.6875 C 8.332031 -3.800781 8.429688 -3.878906 8.515625 -3.921875 C 8.597656 -3.972656 8.671875 -4 8.734375 -4 C 8.847656 -4 8.984375 -3.941406 9.140625 -3.828125 C 9.316406 -3.703125 9.40625 -3.539062 9.40625 -3.34375 C 9.40625 -3.207031 9.359375 -3.082031 9.265625 -2.96875 C 9.234375 -2.90625 9.140625 -2.765625 8.984375 -2.546875 C 8.835938 -2.335938 8.691406 -2.144531 8.546875 -1.96875 C 8.398438 -1.800781 8.253906 -1.660156 8.109375 -1.546875 C 7.328125 -0.859375 6.515625 -0.394531 5.671875 -0.15625 C 5.296875 -0.0507812 4.921875 0 4.546875 0 C 3.859375 0 3.25 -0.171875 2.71875 -0.515625 C 2.1875 -0.867188 1.769531 -1.328125 1.46875 -1.890625 C 1.175781 -2.453125 1.023438 -3.039062 1.015625 -3.65625 Z M 1.015625 -3.90625 "/></g></g></g><g fill="#ffe11b" fill-opacity="1"><g transform="translate(155.300041, 11.899629)"><g><path d="M 5.75 -4.65625 C 5.539062 -4.644531 5.390625 -4.640625 5.296875 -4.640625 C 4.671875 -4.597656 4.1875 -4.550781 3.84375 -4.5 C 3.65625 -4.457031 3.425781 -4.226562 3.15625 -3.8125 C 2.925781 -3.445312 2.769531 -2.878906 2.6875 -2.109375 L 2.546875 -1.65625 C 2.503906 -1.5 2.441406 -1.367188 2.359375 -1.265625 C 2.304688 -1.203125 2.238281 -1.148438 2.15625 -1.109375 C 2.070312 -1.078125 1.988281 -1.0625 1.90625 -1.0625 C 1.945312 -1.0625 1.929688 -1.109375 1.859375 -1.203125 C 1.691406 -1.429688 1.566406 -1.613281 1.484375 -1.75 C 1.398438 -1.894531 1.359375 -2.054688 1.359375 -2.234375 C 1.359375 -2.304688 1.375 -2.394531 1.40625 -2.5 C 1.445312 -2.625 1.472656 -2.75 1.484375 -2.875 C 1.492188 -2.925781 1.503906 -3 1.515625 -3.09375 C 1.535156 -3.195312 1.5625 -3.28125 1.59375 -3.34375 C 1.613281 -3.425781 1.625 -3.5 1.625 -3.5625 C 1.625 -3.75 1.53125 -3.925781 1.34375 -4.09375 C 1.050781 -4.34375 0.90625 -4.570312 0.90625 -4.78125 C 0.90625 -5.007812 1.09375 -5.226562 1.46875 -5.4375 C 1.5 -5.457031 1.546875 -5.488281 1.609375 -5.53125 C 1.671875 -5.570312 1.726562 -5.597656 1.78125 -5.609375 C 1.957031 -5.648438 2.085938 -5.726562 2.171875 -5.84375 C 2.253906 -5.957031 2.320312 -6.125 2.375 -6.34375 C 2.539062 -6.90625 2.722656 -7.507812 2.921875 -8.15625 L 3.0625 -8.609375 C 3.070312 -8.671875 3.117188 -8.78125 3.203125 -8.9375 C 3.566406 -8.945312 3.828125 -8.84375 3.984375 -8.625 C 4.148438 -8.414062 4.234375 -8.144531 4.234375 -7.8125 C 4.234375 -7.757812 4.222656 -7.679688 4.203125 -7.578125 L 4.09375 -7.0625 L 4.015625 -6.78125 L 3.890625 -6.109375 L 4.5625 -6.0625 L 6.171875 -5.921875 L 6.609375 -7.265625 L 6.71875 -7.6875 C 6.957031 -8.007812 7.171875 -8.085938 7.359375 -7.921875 C 7.535156 -7.753906 7.6875 -7.570312 7.8125 -7.375 C 7.945312 -7.175781 8.015625 -6.953125 8.015625 -6.703125 C 8.015625 -6.453125 7.945312 -6.132812 7.8125 -5.75 C 7.875 -5.707031 7.953125 -5.671875 8.046875 -5.640625 C 8.140625 -5.617188 8.203125 -5.601562 8.234375 -5.59375 C 8.503906 -5.507812 8.707031 -5.414062 8.84375 -5.3125 C 8.988281 -5.21875 9.082031 -5.039062 9.125 -4.78125 C 9.019531 -4.613281 8.878906 -4.503906 8.703125 -4.453125 C 8.535156 -4.398438 8.335938 -4.390625 8.109375 -4.421875 C 8.023438 -4.429688 7.914062 -4.4375 7.78125 -4.4375 C 7.59375 -4.4375 7.46875 -4.394531 7.40625 -4.3125 C 7.351562 -4.238281 7.28125 -4.0625 7.1875 -3.78125 L 7.046875 -3.28125 C 6.835938 -2.625 6.6875 -2.09375 6.59375 -1.6875 C 6.507812 -1.289062 6.453125 -0.878906 6.421875 -0.453125 C 6.421875 -0.410156 6.414062 -0.335938 6.40625 -0.234375 C 6.40625 -0.128906 6.378906 -0.046875 6.328125 0.015625 C 6.273438 0.078125 6.195312 0.109375 6.09375 0.109375 C 5.8125 0.140625 5.640625 -0.00390625 5.578125 -0.328125 C 5.367188 -0.773438 5.265625 -1.207031 5.265625 -1.625 C 5.265625 -1.800781 5.273438 -1.9375 5.296875 -2.03125 C 5.390625 -2.582031 5.515625 -3.273438 5.671875 -4.109375 Z M 5.75 -4.65625 "/></g></g></g><g fill="#ffe11b" fill-opacity="1"><g transform="translate(71.622612, 26.616824)"><g><path d="M 2.578125 0.078125 C 1.921875 0.078125 1.40625 -0.117188 1.03125 -0.515625 C 0.65625 -0.910156 0.46875 -1.460938 0.46875 -2.171875 C 0.46875 -2.890625 0.640625 -3.457031 0.984375 -3.875 C 1.335938 -4.289062 1.8125 -4.5 2.40625 -4.5 C 2.957031 -4.5 3.394531 -4.316406 3.71875 -3.953125 C 4.039062 -3.585938 4.203125 -3.109375 4.203125 -2.515625 L 4.203125 -2.09375 L 1.15625 -2.09375 C 1.164062 -1.570312 1.296875 -1.175781 1.546875 -0.90625 C 1.796875 -0.632812 2.148438 -0.5 2.609375 -0.5 C 3.078125 -0.5 3.546875 -0.597656 4.015625 -0.796875 L 4.015625 -0.203125 C 3.773438 -0.0976562 3.550781 -0.0234375 3.34375 0.015625 C 3.132812 0.0546875 2.878906 0.078125 2.578125 0.078125 Z M 2.390625 -3.9375 C 2.035156 -3.9375 1.753906 -3.820312 1.546875 -3.59375 C 1.335938 -3.363281 1.210938 -3.046875 1.171875 -2.640625 L 3.484375 -2.640625 C 3.484375 -3.054688 3.390625 -3.375 3.203125 -3.59375 C 3.015625 -3.820312 2.742188 -3.9375 2.390625 -3.9375 Z M 2.390625 -3.9375 "/></g></g></g><g fill="#ffe11b" fill-opacity="1"><g transform="translate(77.958463, 26.616824)"><g><path d="M 3.4375 0 L 3.296875 -0.625 L 3.265625 -0.625 C 3.046875 -0.351562 2.828125 -0.164062 2.609375 -0.0625 C 2.390625 0.03125 2.113281 0.078125 1.78125 0.078125 C 1.34375 0.078125 1 -0.03125 0.75 -0.25 C 0.5 -0.476562 0.375 -0.800781 0.375 -1.21875 C 0.375 -2.113281 1.085938 -2.582031 2.515625 -2.625 L 3.265625 -2.65625 L 3.265625 -2.921875 C 3.265625 -3.273438 3.191406 -3.53125 3.046875 -3.6875 C 2.898438 -3.851562 2.660156 -3.9375 2.328125 -3.9375 C 1.960938 -3.9375 1.546875 -3.828125 1.078125 -3.609375 L 0.875 -4.109375 C 1.09375 -4.234375 1.332031 -4.328125 1.59375 -4.390625 C 1.851562 -4.460938 2.113281 -4.5 2.375 -4.5 C 2.90625 -4.5 3.296875 -4.378906 3.546875 -4.140625 C 3.796875 -3.910156 3.921875 -3.535156 3.921875 -3.015625 L 3.921875 0 Z M 1.921875 -0.46875 C 2.335938 -0.46875 2.660156 -0.582031 2.890625 -0.8125 C 3.128906 -1.039062 3.25 -1.363281 3.25 -1.78125 L 3.25 -2.171875 L 2.59375 -2.140625 C 2.050781 -2.128906 1.660156 -2.046875 1.421875 -1.890625 C 1.191406 -1.742188 1.078125 -1.519531 1.078125 -1.21875 C 1.078125 -0.976562 1.148438 -0.789062 1.296875 -0.65625 C 1.441406 -0.53125 1.648438 -0.46875 1.921875 -0.46875 Z M 1.921875 -0.46875 "/></g></g></g><g fill="#ffe11b" fill-opacity="1"><g transform="translate(84.253937, 26.616824)"><g><path d="M 3.5625 -1.203125 C 3.5625 -0.796875 3.40625 -0.476562 3.09375 -0.25 C 2.789062 -0.03125 2.363281 0.078125 1.8125 0.078125 C 1.226562 0.078125 0.769531 -0.015625 0.4375 -0.203125 L 0.4375 -0.8125 C 0.65625 -0.707031 0.882812 -0.625 1.125 -0.5625 C 1.363281 -0.5 1.597656 -0.46875 1.828125 -0.46875 C 2.179688 -0.46875 2.453125 -0.523438 2.640625 -0.640625 C 2.828125 -0.753906 2.921875 -0.925781 2.921875 -1.15625 C 2.921875 -1.320312 2.84375 -1.46875 2.6875 -1.59375 C 2.539062 -1.71875 2.25 -1.863281 1.8125 -2.03125 C 1.40625 -2.175781 1.113281 -2.304688 0.9375 -2.421875 C 0.769531 -2.535156 0.640625 -2.664062 0.546875 -2.8125 C 0.460938 -2.957031 0.421875 -3.132812 0.421875 -3.34375 C 0.421875 -3.695312 0.566406 -3.976562 0.859375 -4.1875 C 1.160156 -4.394531 1.566406 -4.5 2.078125 -4.5 C 2.546875 -4.5 3.007812 -4.40625 3.46875 -4.21875 L 3.234375 -3.671875 C 2.785156 -3.847656 2.382812 -3.9375 2.03125 -3.9375 C 1.707031 -3.9375 1.460938 -3.882812 1.296875 -3.78125 C 1.140625 -3.6875 1.0625 -3.550781 1.0625 -3.375 C 1.0625 -3.257812 1.09375 -3.160156 1.15625 -3.078125 C 1.21875 -2.992188 1.316406 -2.914062 1.453125 -2.84375 C 1.585938 -2.769531 1.84375 -2.660156 2.21875 -2.515625 C 2.75 -2.328125 3.101562 -2.132812 3.28125 -1.9375 C 3.46875 -1.738281 3.5625 -1.492188 3.5625 -1.203125 Z M 3.5625 -1.203125 "/></g></g></g><g fill="#ffe11b" fill-opacity="1"><g transform="translate(89.895308, 26.616824)"><g><path d="M 0.015625 -4.421875 L 0.71875 -4.421875 L 1.6875 -1.90625 C 1.90625 -1.320312 2.039062 -0.90625 2.09375 -0.65625 L 2.125 -0.65625 C 2.15625 -0.789062 2.226562 -1.023438 2.34375 -1.359375 C 2.457031 -1.691406 2.820312 -2.710938 3.4375 -4.421875 L 4.15625 -4.421875 L 2.25 0.609375 C 2.0625 1.109375 1.84375 1.460938 1.59375 1.671875 C 1.34375 1.878906 1.035156 1.984375 0.671875 1.984375 C 0.460938 1.984375 0.257812 1.960938 0.0625 1.921875 L 0.0625 1.375 C 0.207031 1.40625 0.375 1.421875 0.5625 1.421875 C 1.019531 1.421875 1.347656 1.164062 1.546875 0.65625 L 1.796875 0.03125 Z M 0.015625 -4.421875 "/></g></g></g><g fill="#ffe11b" fill-opacity="1"><g transform="translate(95.758748, 26.616824)"><g/></g></g><g fill="#ffe11b" fill-opacity="1"><g transform="translate(99.603351, 26.616824)"><g><path d="M 3.5625 -1.203125 C 3.5625 -0.796875 3.40625 -0.476562 3.09375 -0.25 C 2.789062 -0.03125 2.363281 0.078125 1.8125 0.078125 C 1.226562 0.078125 0.769531 -0.015625 0.4375 -0.203125 L 0.4375 -0.8125 C 0.65625 -0.707031 0.882812 -0.625 1.125 -0.5625 C 1.363281 -0.5 1.597656 -0.46875 1.828125 -0.46875 C 2.179688 -0.46875 2.453125 -0.523438 2.640625 -0.640625 C 2.828125 -0.753906 2.921875 -0.925781 2.921875 -1.15625 C 2.921875 -1.320312 2.84375 -1.46875 2.6875 -1.59375 C 2.539062 -1.71875 2.25 -1.863281 1.8125 -2.03125 C 1.40625 -2.175781 1.113281 -2.304688 0.9375 -2.421875 C 0.769531 -2.535156 0.640625 -2.664062 0.546875 -2.8125 C 0.460938 -2.957031 0.421875 -3.132812 0.421875 -3.34375 C 0.421875 -3.695312 0.566406 -3.976562 0.859375 -4.1875 C 1.160156 -4.394531 1.566406 -4.5 2.078125 -4.5 C 2.546875 -4.5 3.007812 -4.40625 3.46875 -4.21875 L 3.234375 -3.671875 C 2.785156 -3.847656 2.382812 -3.9375 2.03125 -3.9375 C 1.707031 -3.9375 1.460938 -3.882812 1.296875 -3.78125 C 1.140625 -3.6875 1.0625 -3.550781 1.0625 -3.375 C 1.0625 -3.257812 1.09375 -3.160156 1.15625 -3.078125 C 1.21875 -2.992188 1.316406 -2.914062 1.453125 -2.84375 C 1.585938 -2.769531 1.84375 -2.660156 2.21875 -2.515625 C 2.75 -2.328125 3.101562 -2.132812 3.28125 -1.9375 C 3.46875 -1.738281 3.5625 -1.492188 3.5625 -1.203125 Z M 3.5625 -1.203125 "/></g></g></g><g fill="#ffe11b" fill-opacity="1"><g transform="translate(105.244721, 26.616824)"><g><path d="M 3.734375 0 L 3.734375 -2.859375 C 3.734375 -3.222656 3.648438 -3.492188 3.484375 -3.671875 C 3.328125 -3.847656 3.070312 -3.9375 2.71875 -3.9375 C 2.25 -3.9375 1.90625 -3.804688 1.6875 -3.546875 C 1.476562 -3.296875 1.375 -2.882812 1.375 -2.3125 L 1.375 0 L 0.703125 0 L 0.703125 -6.28125 L 1.375 -6.28125 L 1.375 -4.375 C 1.375 -4.144531 1.363281 -3.957031 1.34375 -3.8125 L 1.390625 -3.8125 C 1.523438 -4.019531 1.710938 -4.1875 1.953125 -4.3125 C 2.191406 -4.4375 2.46875 -4.5 2.78125 -4.5 C 3.320312 -4.5 3.726562 -4.367188 4 -4.109375 C 4.269531 -3.847656 4.40625 -3.441406 4.40625 -2.890625 L 4.40625 0 Z M 3.734375 0 "/></g></g></g><g fill="#ffe11b" fill-opacity="1"><g transform="translate(112.016639, 26.616824)"><g><path d="M 4.53125 -2.21875 C 4.53125 -1.5 4.347656 -0.9375 3.984375 -0.53125 C 3.617188 -0.125 3.117188 0.078125 2.484375 0.078125 C 2.085938 0.078125 1.734375 -0.0078125 1.421875 -0.1875 C 1.117188 -0.375 0.882812 -0.640625 0.71875 -0.984375 C 0.550781 -1.335938 0.46875 -1.75 0.46875 -2.21875 C 0.46875 -2.9375 0.644531 -3.492188 1 -3.890625 C 1.363281 -4.296875 1.863281 -4.5 2.5 -4.5 C 3.125 -4.5 3.617188 -4.289062 3.984375 -3.875 C 4.347656 -3.46875 4.53125 -2.914062 4.53125 -2.21875 Z M 1.15625 -2.21875 C 1.15625 -1.65625 1.269531 -1.222656 1.5 -0.921875 C 1.726562 -0.628906 2.0625 -0.484375 2.5 -0.484375 C 2.9375 -0.484375 3.265625 -0.628906 3.484375 -0.921875 C 3.710938 -1.210938 3.828125 -1.644531 3.828125 -2.21875 C 3.828125 -2.78125 3.710938 -3.207031 3.484375 -3.5 C 3.265625 -3.789062 2.929688 -3.9375 2.484375 -3.9375 C 2.046875 -3.9375 1.710938 -3.789062 1.484375 -3.5 C 1.265625 -3.21875 1.15625 -2.789062 1.15625 -2.21875 Z M 1.15625 -2.21875 "/></g></g></g><g fill="#ffe11b" fill-opacity="1"><g transform="translate(118.707804, 26.616824)"><g><path d="M 2.765625 0.078125 C 2.484375 0.078125 2.222656 0.0234375 1.984375 -0.078125 C 1.742188 -0.179688 1.539062 -0.34375 1.375 -0.5625 L 1.328125 -0.5625 C 1.359375 -0.3125 1.375 -0.0664062 1.375 0.171875 L 1.375 1.984375 L 0.703125 1.984375 L 0.703125 -4.421875 L 1.25 -4.421875 L 1.34375 -3.8125 L 1.375 -3.8125 C 1.550781 -4.0625 1.753906 -4.238281 1.984375 -4.34375 C 2.210938 -4.445312 2.472656 -4.5 2.765625 -4.5 C 3.359375 -4.5 3.8125 -4.296875 4.125 -3.890625 C 4.445312 -3.492188 4.609375 -2.9375 4.609375 -2.21875 C 4.609375 -1.488281 4.441406 -0.921875 4.109375 -0.515625 C 3.785156 -0.117188 3.335938 0.078125 2.765625 0.078125 Z M 2.671875 -3.9375 C 2.222656 -3.9375 1.894531 -3.8125 1.6875 -3.5625 C 1.488281 -3.3125 1.382812 -2.910156 1.375 -2.359375 L 1.375 -2.21875 C 1.375 -1.59375 1.476562 -1.144531 1.6875 -0.875 C 1.894531 -0.613281 2.226562 -0.484375 2.6875 -0.484375 C 3.070312 -0.484375 3.367188 -0.632812 3.578125 -0.9375 C 3.796875 -1.25 3.90625 -1.675781 3.90625 -2.21875 C 3.90625 -2.769531 3.796875 -3.191406 3.578125 -3.484375 C 3.367188 -3.785156 3.066406 -3.9375 2.671875 -3.9375 Z M 2.671875 -3.9375 "/></g></g></g><g fill="#ffe11b" fill-opacity="1"><g transform="translate(125.471646, 26.616824)"><g><path d="M 2.765625 0.078125 C 2.484375 0.078125 2.222656 0.0234375 1.984375 -0.078125 C 1.742188 -0.179688 1.539062 -0.34375 1.375 -0.5625 L 1.328125 -0.5625 C 1.359375 -0.3125 1.375 -0.0664062 1.375 0.171875 L 1.375 1.984375 L 0.703125 1.984375 L 0.703125 -4.421875 L 1.25 -4.421875 L 1.34375 -3.8125 L 1.375 -3.8125 C 1.550781 -4.0625 1.753906 -4.238281 1.984375 -4.34375 C 2.210938 -4.445312 2.472656 -4.5 2.765625 -4.5 C 3.359375 -4.5 3.8125 -4.296875 4.125 -3.890625 C 4.445312 -3.492188 4.609375 -2.9375 4.609375 -2.21875 C 4.609375 -1.488281 4.441406 -0.921875 4.109375 -0.515625 C 3.785156 -0.117188 3.335938 0.078125 2.765625 0.078125 Z M 2.671875 -3.9375 C 2.222656 -3.9375 1.894531 -3.8125 1.6875 -3.5625 C 1.488281 -3.3125 1.382812 -2.910156 1.375 -2.359375 L 1.375 -2.21875 C 1.375 -1.59375 1.476562 -1.144531 1.6875 -0.875 C 1.894531 -0.613281 2.226562 -0.484375 2.6875 -0.484375 C 3.070312 -0.484375 3.367188 -0.632812 3.578125 -0.9375 C 3.796875 -1.25 3.90625 -1.675781 3.90625 -2.21875 C 3.90625 -2.769531 3.796875 -3.191406 3.578125 -3.484375 C 3.367188 -3.785156 3.066406 -3.9375 2.671875 -3.9375 Z M 2.671875 -3.9375 "/></g></g></g><g fill="#ffe11b" fill-opacity="1"><g transform="translate(132.235489, 26.616824)"><g><path d="M 1.375 0 L 0.703125 0 L 0.703125 -4.421875 L 1.375 -4.421875 Z M 0.65625 -5.625 C 0.65625 -5.78125 0.691406 -5.890625 0.765625 -5.953125 C 0.835938 -6.023438 0.929688 -6.0625 1.046875 -6.0625 C 1.148438 -6.0625 1.238281 -6.023438 1.3125 -5.953125 C 1.394531 -5.878906 1.4375 -5.769531 1.4375 -5.625 C 1.4375 -5.46875 1.394531 -5.351562 1.3125 -5.28125 C 1.238281 -5.207031 1.148438 -5.171875 1.046875 -5.171875 C 0.929688 -5.171875 0.835938 -5.207031 0.765625 -5.28125 C 0.691406 -5.351562 0.65625 -5.46875 0.65625 -5.625 Z M 0.65625 -5.625 "/></g></g></g><g fill="#ffe11b" fill-opacity="1"><g transform="translate(136.023565, 26.616824)"><g><path d="M 3.734375 0 L 3.734375 -2.859375 C 3.734375 -3.222656 3.648438 -3.492188 3.484375 -3.671875 C 3.328125 -3.847656 3.070312 -3.9375 2.71875 -3.9375 C 2.257812 -3.9375 1.921875 -3.8125 1.703125 -3.5625 C 1.484375 -3.3125 1.375 -2.898438 1.375 -2.328125 L 1.375 0 L 0.703125 0 L 0.703125 -4.421875 L 1.25 -4.421875 L 1.359375 -3.8125 L 1.390625 -3.8125 C 1.535156 -4.03125 1.726562 -4.195312 1.96875 -4.3125 C 2.21875 -4.4375 2.492188 -4.5 2.796875 -4.5 C 3.328125 -4.5 3.726562 -4.367188 4 -4.109375 C 4.269531 -3.859375 4.40625 -3.453125 4.40625 -2.890625 L 4.40625 0 Z M 3.734375 0 "/></g></g></g><g fill="#ffe11b" fill-opacity="1"><g transform="translate(142.795483, 26.616824)"><g><path d="M 4.328125 -4.421875 L 4.328125 -4 L 3.515625 -3.90625 C 3.585938 -3.8125 3.648438 -3.6875 3.703125 -3.53125 C 3.765625 -3.382812 3.796875 -3.210938 3.796875 -3.015625 C 3.796875 -2.585938 3.644531 -2.242188 3.34375 -1.984375 C 3.050781 -1.722656 2.648438 -1.59375 2.140625 -1.59375 C 2.003906 -1.59375 1.878906 -1.601562 1.765625 -1.625 C 1.484375 -1.476562 1.34375 -1.289062 1.34375 -1.0625 C 1.34375 -0.9375 1.390625 -0.84375 1.484375 -0.78125 C 1.585938 -0.726562 1.757812 -0.703125 2 -0.703125 L 2.78125 -0.703125 C 3.257812 -0.703125 3.628906 -0.597656 3.890625 -0.390625 C 4.148438 -0.191406 4.28125 0.0976562 4.28125 0.484375 C 4.28125 0.972656 4.082031 1.34375 3.6875 1.59375 C 3.289062 1.851562 2.71875 1.984375 1.96875 1.984375 C 1.382812 1.984375 0.9375 1.875 0.625 1.65625 C 0.3125 1.445312 0.15625 1.144531 0.15625 0.75 C 0.15625 0.476562 0.238281 0.242188 0.40625 0.046875 C 0.582031 -0.140625 0.828125 -0.269531 1.140625 -0.34375 C 1.023438 -0.394531 0.929688 -0.472656 0.859375 -0.578125 C 0.785156 -0.691406 0.75 -0.816406 0.75 -0.953125 C 0.75 -1.117188 0.789062 -1.257812 0.875 -1.375 C 0.957031 -1.5 1.09375 -1.617188 1.28125 -1.734375 C 1.050781 -1.828125 0.863281 -1.988281 0.71875 -2.21875 C 0.570312 -2.445312 0.5 -2.703125 0.5 -2.984375 C 0.5 -3.472656 0.644531 -3.847656 0.9375 -4.109375 C 1.226562 -4.367188 1.640625 -4.5 2.171875 -4.5 C 2.398438 -4.5 2.609375 -4.472656 2.796875 -4.421875 Z M 0.796875 0.75 C 0.796875 0.988281 0.894531 1.164062 1.09375 1.28125 C 1.300781 1.40625 1.59375 1.46875 1.96875 1.46875 C 2.53125 1.46875 2.945312 1.382812 3.21875 1.21875 C 3.488281 1.050781 3.625 0.820312 3.625 0.53125 C 3.625 0.289062 3.550781 0.125 3.40625 0.03125 C 3.257812 -0.0507812 2.984375 -0.09375 2.578125 -0.09375 L 1.765625 -0.09375 C 1.460938 -0.09375 1.222656 -0.0234375 1.046875 0.109375 C 0.878906 0.253906 0.796875 0.46875 0.796875 0.75 Z M 1.171875 -3 C 1.171875 -2.695312 1.253906 -2.460938 1.421875 -2.296875 C 1.597656 -2.140625 1.84375 -2.0625 2.15625 -2.0625 C 2.8125 -2.0625 3.140625 -2.378906 3.140625 -3.015625 C 3.140625 -3.679688 2.804688 -4.015625 2.140625 -4.015625 C 1.828125 -4.015625 1.585938 -3.925781 1.421875 -3.75 C 1.253906 -3.582031 1.171875 -3.332031 1.171875 -3 Z M 1.171875 -3 "/></g></g></g></svg>