<svg xmlns="http://www.w3.org/2000/svg" xmlns:xlink="http://www.w3.org/1999/xlink" width="500" zoomAndPan="magnify" viewBox="0 0 375 374.999991" height="500" preserveAspectRatio="xMidYMid meet" version="1.0"><path fill="#ffffff" d="M 103.09375 203.609375 C 102.746094 203.609375 102.414062 203.675781 102.09375 203.804688 C 101.773438 203.9375 101.488281 204.128906 101.242188 204.375 C 101 204.617188 100.808594 204.902344 100.675781 205.222656 C 100.542969 205.542969 100.476562 205.875 100.476562 206.222656 C 100.476562 206.570312 100.542969 206.902344 100.675781 207.222656 C 100.808594 207.542969 101 207.824219 101.242188 208.070312 C 101.488281 208.316406 101.773438 208.503906 102.09375 208.636719 C 102.414062 208.769531 102.746094 208.835938 103.09375 208.835938 C 103.4375 208.835938 103.773438 208.769531 104.09375 208.636719 C 104.414062 208.503906 104.695312 208.316406 104.941406 208.070312 C 105.1875 207.824219 105.375 207.542969 105.507812 207.222656 C 105.640625 206.902344 105.707031 206.570312 105.707031 206.222656 C 105.707031 205.875 105.640625 205.542969 105.507812 205.222656 C 105.375 204.902344 105.1875 204.617188 104.941406 204.375 C 104.695312 204.128906 104.414062 203.9375 104.09375 203.804688 C 103.773438 203.675781 103.4375 203.609375 103.09375 203.609375 Z M 274.78125 131.851562 C 274.511719 131.851562 274.25 131.902344 274.003906 132.007812 C 273.753906 132.109375 273.53125 132.257812 273.339844 132.445312 C 273.148438 132.636719 273.003906 132.859375 272.898438 133.105469 C 272.796875 133.355469 272.746094 133.617188 272.746094 133.886719 C 272.746094 134.15625 272.796875 134.414062 272.898438 134.664062 C 273.003906 134.914062 273.148438 135.132812 273.339844 135.324219 C 273.53125 135.515625 273.753906 135.664062 274.003906 135.765625 C 274.25 135.867188 274.511719 135.921875 274.78125 135.917969 C 275.050781 135.921875 275.3125 135.867188 275.5625 135.765625 C 275.8125 135.664062 276.03125 135.515625 276.222656 135.324219 C 276.414062 135.132812 276.5625 134.914062 276.664062 134.664062 C 276.765625 134.414062 276.820312 134.15625 276.820312 133.886719 C 276.820312 133.617188 276.765625 133.355469 276.664062 133.105469 C 276.5625 132.859375 276.414062 132.636719 276.222656 132.445312 C 276.03125 132.257812 275.8125 132.109375 275.5625 132.007812 C 275.3125 131.902344 275.050781 131.851562 274.78125 131.851562 Z M 274.78125 131.851562 " fill-opacity="1" fill-rule="nonzero"/><path fill="#f1bc19" d="M 266.9375 76.074219 C 266.589844 76.074219 266.257812 76.140625 265.9375 76.273438 C 265.617188 76.40625 265.335938 76.597656 265.089844 76.839844 C 264.84375 77.085938 264.65625 77.367188 264.523438 77.6875 C 264.390625 78.007812 264.324219 78.34375 264.324219 78.691406 C 264.324219 79.035156 264.390625 79.371094 264.523438 79.691406 C 264.65625 80.011719 264.84375 80.292969 265.089844 80.539062 C 265.335938 80.785156 265.617188 80.972656 265.9375 81.105469 C 266.257812 81.238281 266.589844 81.304688 266.9375 81.304688 C 267.285156 81.304688 267.617188 81.238281 267.9375 81.105469 C 268.257812 80.972656 268.542969 80.785156 268.785156 80.539062 C 269.03125 80.292969 269.222656 80.011719 269.351562 79.691406 C 269.484375 79.371094 269.550781 79.035156 269.550781 78.691406 C 269.550781 78.34375 269.484375 78.007812 269.351562 77.6875 C 269.222656 77.367188 269.03125 77.085938 268.785156 76.839844 C 268.542969 76.597656 268.257812 76.40625 267.9375 76.273438 C 267.617188 76.140625 267.285156 76.074219 266.9375 76.074219 Z M 104.546875 225.976562 C 104.199219 225.976562 103.863281 226.042969 103.542969 226.175781 C 103.222656 226.308594 102.941406 226.496094 102.695312 226.742188 C 102.449219 226.988281 102.261719 227.269531 102.128906 227.589844 C 101.996094 227.910156 101.929688 228.246094 101.929688 228.589844 C 101.929688 228.9375 101.996094 229.269531 102.128906 229.589844 C 102.261719 229.910156 102.449219 230.195312 102.695312 230.441406 C 102.941406 230.683594 103.222656 230.875 103.542969 231.007812 C 103.863281 231.140625 104.199219 231.207031 104.546875 231.207031 C 104.890625 231.207031 105.226562 231.140625 105.546875 231.007812 C 105.867188 230.875 106.148438 230.683594 106.394531 230.441406 C 106.640625 230.195312 106.828125 229.910156 106.960938 229.589844 C 107.09375 229.269531 107.160156 228.9375 107.160156 228.589844 C 107.160156 228.246094 107.09375 227.910156 106.960938 227.589844 C 106.828125 227.269531 106.640625 226.988281 106.394531 226.742188 C 106.148438 226.496094 105.867188 226.308594 105.546875 226.175781 C 105.226562 226.042969 104.890625 225.976562 104.546875 225.976562 Z M 104.546875 225.976562 " fill-opacity="1" fill-rule="nonzero"/><path fill="#c0e5e4" d="M 188.210938 78.109375 C 186.433594 78.109375 184.65625 78.152344 182.878906 78.238281 C 181.105469 78.328125 179.332031 78.457031 177.5625 78.632812 C 175.792969 78.804688 174.027344 79.023438 172.269531 79.285156 C 170.507812 79.546875 168.757812 79.851562 167.015625 80.195312 C 165.269531 80.542969 163.535156 80.933594 161.8125 81.363281 C 160.085938 81.796875 158.375 82.269531 156.671875 82.789062 C 154.96875 83.304688 153.28125 83.859375 151.609375 84.460938 C 149.933594 85.058594 148.273438 85.699219 146.632812 86.378906 C 144.988281 87.058594 143.363281 87.78125 141.757812 88.539062 C 140.148438 89.300781 138.5625 90.101562 136.992188 90.9375 C 135.425781 91.777344 133.878906 92.652344 132.355469 93.566406 C 130.828125 94.480469 129.328125 95.433594 127.847656 96.417969 C 126.371094 97.40625 124.917969 98.429688 123.488281 99.492188 C 122.058594 100.550781 120.660156 101.644531 119.285156 102.769531 C 117.910156 103.898438 116.5625 105.058594 115.246094 106.253906 C 113.929688 107.449219 112.640625 108.675781 111.382812 109.929688 C 110.125 111.1875 108.902344 112.476562 107.707031 113.792969 C 106.511719 115.109375 105.351562 116.457031 104.222656 117.832031 C 103.09375 119.207031 102.003906 120.609375 100.941406 122.035156 C 99.882812 123.464844 98.859375 124.917969 97.871094 126.394531 C 96.882812 127.875 95.933594 129.375 95.019531 130.902344 C 94.105469 132.425781 93.230469 133.972656 92.390625 135.542969 C 91.550781 137.109375 90.753906 138.695312 89.992188 140.304688 C 89.234375 141.910156 88.511719 143.539062 87.832031 145.179688 C 87.152344 146.824219 86.511719 148.480469 85.914062 150.15625 C 85.3125 151.828125 84.757812 153.515625 84.238281 155.21875 C 83.722656 156.921875 83.25 158.632812 82.816406 160.359375 C 82.386719 162.082031 81.996094 163.816406 81.648438 165.5625 C 81.300781 167.304688 81 169.058594 80.738281 170.816406 C 80.476562 172.574219 80.257812 174.339844 80.085938 176.109375 C 79.910156 177.878906 79.78125 179.652344 79.691406 181.425781 C 79.605469 183.203125 79.5625 184.980469 79.5625 186.757812 C 79.5625 188.535156 79.605469 190.3125 79.691406 192.089844 C 79.78125 193.867188 79.910156 195.636719 80.085938 197.40625 C 80.257812 199.175781 80.476562 200.941406 80.738281 202.699219 C 81 204.460938 81.300781 206.210938 81.648438 207.953125 C 81.996094 209.699219 82.386719 211.433594 82.816406 213.15625 C 83.25 214.882812 83.722656 216.597656 84.238281 218.296875 C 84.757812 220 85.3125 221.6875 85.914062 223.359375 C 86.511719 225.035156 87.152344 226.695312 87.832031 228.335938 C 88.511719 229.980469 89.234375 231.605469 89.992188 233.210938 C 90.753906 234.820312 91.550781 236.40625 92.390625 237.976562 C 93.230469 239.542969 94.105469 241.089844 95.019531 242.613281 C 95.933594 244.140625 96.882812 245.640625 97.871094 247.121094 C 98.859375 248.597656 99.882812 250.050781 100.941406 251.480469 C 102.003906 252.910156 103.09375 254.308594 104.222656 255.683594 C 105.351562 257.058594 106.511719 258.40625 107.707031 259.722656 C 108.902344 261.039062 110.125 262.328125 111.382812 263.585938 C 112.640625 264.84375 113.929688 266.066406 115.246094 267.261719 C 116.5625 268.457031 117.910156 269.617188 119.285156 270.746094 C 120.660156 271.875 122.058594 272.96875 123.488281 274.027344 C 124.917969 275.085938 126.371094 276.109375 127.847656 277.097656 C 129.328125 278.085938 130.828125 279.035156 132.355469 279.949219 C 133.878906 280.863281 135.425781 281.738281 136.992188 282.578125 C 138.5625 283.417969 140.148438 284.214844 141.757812 284.976562 C 143.363281 285.734375 144.988281 286.457031 146.632812 287.136719 C 148.273438 287.816406 149.933594 288.457031 151.609375 289.054688 C 153.28125 289.65625 154.96875 290.214844 156.671875 290.730469 C 158.375 291.246094 160.085938 291.71875 161.8125 292.152344 C 163.535156 292.582031 165.269531 292.972656 167.015625 293.320312 C 168.757812 293.667969 170.507812 293.972656 172.269531 294.230469 C 174.027344 294.492188 175.792969 294.710938 177.5625 294.882812 C 179.332031 295.058594 181.105469 295.191406 182.878906 295.277344 C 184.65625 295.363281 186.433594 295.40625 188.210938 295.40625 C 189.988281 295.40625 191.765625 295.363281 193.542969 295.277344 C 195.316406 295.191406 197.089844 295.058594 198.859375 294.882812 C 200.628906 294.710938 202.394531 294.492188 204.152344 294.230469 C 205.910156 293.972656 207.664062 293.667969 209.40625 293.320312 C 211.152344 292.972656 212.886719 292.582031 214.609375 292.152344 C 216.335938 291.71875 218.046875 291.246094 219.75 290.730469 C 221.453125 290.214844 223.140625 289.65625 224.8125 289.054688 C 226.488281 288.457031 228.144531 287.816406 229.789062 287.136719 C 231.433594 286.457031 233.058594 285.734375 234.664062 284.976562 C 236.273438 284.214844 237.859375 283.417969 239.425781 282.578125 C 240.996094 281.738281 242.542969 280.863281 244.066406 279.949219 C 245.59375 279.035156 247.09375 278.085938 248.574219 277.097656 C 250.050781 276.109375 251.503906 275.085938 252.933594 274.027344 C 254.359375 272.96875 255.761719 271.875 257.136719 270.746094 C 258.511719 269.617188 259.859375 268.457031 261.175781 267.261719 C 262.492188 266.066406 263.78125 264.84375 265.039062 263.585938 C 266.292969 262.328125 267.519531 261.039062 268.714844 259.722656 C 269.910156 258.40625 271.070312 257.058594 272.199219 255.683594 C 273.324219 254.308594 274.417969 252.910156 275.480469 251.480469 C 276.539062 250.050781 277.5625 248.597656 278.550781 247.121094 C 279.539062 245.640625 280.488281 244.140625 281.402344 242.613281 C 282.316406 241.089844 283.191406 239.542969 284.03125 237.976562 C 284.871094 236.40625 285.667969 234.820312 286.429688 233.210938 C 287.1875 231.605469 287.910156 229.980469 288.589844 228.335938 C 289.269531 226.695312 289.910156 225.035156 290.507812 223.359375 C 291.109375 221.6875 291.664062 220 292.183594 218.296875 C 292.699219 216.597656 293.171875 214.882812 293.605469 213.15625 C 294.035156 211.433594 294.425781 209.699219 294.773438 207.953125 C 295.121094 206.210938 295.421875 204.460938 295.683594 202.699219 C 295.945312 200.941406 296.164062 199.175781 296.335938 197.40625 C 296.511719 195.636719 296.640625 193.867188 296.730469 192.089844 C 296.816406 190.3125 296.859375 188.535156 296.859375 186.757812 C 296.859375 184.980469 296.816406 183.203125 296.730469 181.425781 C 296.640625 179.652344 296.511719 177.878906 296.335938 176.109375 C 296.164062 174.339844 295.945312 172.574219 295.683594 170.816406 C 295.421875 169.058594 295.121094 167.304688 294.773438 165.5625 C 294.425781 163.816406 294.035156 162.082031 293.605469 160.359375 C 293.171875 158.632812 292.699219 156.921875 292.183594 155.21875 C 291.664062 153.515625 291.109375 151.828125 290.507812 150.15625 C 289.910156 148.480469 289.269531 146.824219 288.589844 145.179688 C 287.910156 143.539062 287.1875 141.910156 286.429688 140.304688 C 285.667969 138.695312 284.871094 137.109375 284.03125 135.542969 C 283.191406 133.972656 282.316406 132.425781 281.402344 130.902344 C 280.488281 129.375 279.539062 127.875 278.550781 126.394531 C 277.5625 124.917969 276.539062 123.464844 275.480469 122.035156 C 274.417969 120.609375 273.324219 119.207031 272.199219 117.832031 C 271.070312 116.457031 269.910156 115.109375 268.714844 113.792969 C 267.519531 112.476562 266.292969 111.1875 265.039062 109.929688 C 263.78125 108.675781 262.492188 107.449219 261.175781 106.253906 C 259.859375 105.058594 258.511719 103.898438 257.136719 102.769531 C 255.761719 101.644531 254.359375 100.550781 252.933594 99.492188 C 251.503906 98.429688 250.050781 97.40625 248.574219 96.417969 C 247.09375 95.433594 245.59375 94.480469 244.066406 93.566406 C 242.542969 92.652344 240.996094 91.777344 239.425781 90.9375 C 237.859375 90.101562 236.273438 89.300781 234.664062 88.539062 C 233.058594 87.78125 231.433594 87.058594 229.789062 86.378906 C 228.144531 85.699219 226.488281 85.058594 224.8125 84.460938 C 223.140625 83.859375 221.453125 83.304688 219.75 82.789062 C 218.046875 82.269531 216.335938 81.796875 214.609375 81.363281 C 212.886719 80.933594 211.152344 80.542969 209.40625 80.195312 C 207.664062 79.851562 205.910156 79.546875 204.152344 79.285156 C 202.394531 79.023438 200.628906 78.804688 198.859375 78.632812 C 197.089844 78.457031 195.316406 78.328125 193.542969 78.238281 C 191.765625 78.152344 189.988281 78.109375 188.210938 78.109375 Z M 188.210938 78.109375 " fill-opacity="1" fill-rule="nonzero"/><path fill="#f1bc19" d="M 282.914062 73.171875 C 282.152344 73.171875 281.398438 73.246094 280.648438 73.394531 C 279.902344 73.542969 279.175781 73.761719 278.46875 74.054688 C 277.765625 74.347656 277.09375 74.703125 276.460938 75.128906 C 275.824219 75.550781 275.238281 76.035156 274.699219 76.574219 C 274.160156 77.113281 273.679688 77.699219 273.253906 78.335938 C 272.828125 78.96875 272.472656 79.640625 272.179688 80.34375 C 271.886719 81.046875 271.667969 81.773438 271.519531 82.523438 C 271.371094 83.273438 271.296875 84.027344 271.296875 84.789062 C 271.296875 85.554688 271.371094 86.308594 271.519531 87.058594 C 271.667969 87.804688 271.886719 88.53125 272.179688 89.238281 C 272.472656 89.941406 272.828125 90.613281 273.253906 91.246094 C 273.679688 91.878906 274.160156 92.46875 274.699219 93.007812 C 275.238281 93.546875 275.824219 94.027344 276.460938 94.453125 C 277.09375 94.875 277.765625 95.234375 278.46875 95.527344 C 279.175781 95.816406 279.902344 96.039062 280.648438 96.1875 C 281.398438 96.335938 282.152344 96.410156 282.914062 96.410156 C 283.679688 96.410156 284.433594 96.335938 285.183594 96.1875 C 285.929688 96.039062 286.65625 95.816406 287.363281 95.527344 C 288.066406 95.234375 288.738281 94.875 289.371094 94.453125 C 290.007812 94.027344 290.59375 93.546875 291.132812 93.007812 C 291.671875 92.46875 292.152344 91.878906 292.578125 91.246094 C 293 90.613281 293.359375 89.941406 293.652344 89.238281 C 293.945312 88.53125 294.164062 87.804688 294.3125 87.058594 C 294.460938 86.308594 294.535156 85.554688 294.535156 84.789062 C 294.535156 84.027344 294.460938 83.273438 294.3125 82.523438 C 294.164062 81.773438 293.945312 81.046875 293.652344 80.34375 C 293.359375 79.640625 293 78.96875 292.578125 78.335938 C 292.152344 77.699219 291.671875 77.113281 291.132812 76.574219 C 290.59375 76.035156 290.007812 75.550781 289.371094 75.128906 C 288.738281 74.703125 288.066406 74.347656 287.363281 74.054688 C 286.65625 73.761719 285.929688 73.542969 285.183594 73.394531 C 284.433594 73.246094 283.679688 73.171875 282.914062 73.171875 Z M 282.914062 73.171875 " fill-opacity="1" fill-rule="nonzero"/><path fill="#77cbd2" d="M 294.535156 105.707031 C 294.171875 105.707031 293.816406 105.742188 293.460938 105.8125 C 293.105469 105.882812 292.757812 105.988281 292.421875 106.128906 C 292.089844 106.265625 291.769531 106.4375 291.46875 106.636719 C 291.167969 106.839844 290.890625 107.066406 290.632812 107.324219 C 290.375 107.578125 290.148438 107.859375 289.945312 108.160156 C 289.746094 108.460938 289.574219 108.78125 289.4375 109.113281 C 289.296875 109.449219 289.191406 109.792969 289.121094 110.148438 C 289.050781 110.503906 289.015625 110.863281 289.015625 111.226562 C 289.015625 111.589844 289.050781 111.949219 289.121094 112.304688 C 289.191406 112.660156 289.296875 113.003906 289.4375 113.339844 C 289.574219 113.671875 289.746094 113.992188 289.945312 114.292969 C 290.148438 114.59375 290.375 114.875 290.632812 115.128906 C 290.890625 115.386719 291.167969 115.613281 291.46875 115.816406 C 291.769531 116.015625 292.089844 116.1875 292.421875 116.324219 C 292.757812 116.464844 293.105469 116.570312 293.460938 116.640625 C 293.816406 116.710938 294.171875 116.746094 294.535156 116.746094 C 294.898438 116.746094 295.257812 116.710938 295.613281 116.640625 C 295.96875 116.570312 296.3125 116.464844 296.648438 116.324219 C 296.984375 116.1875 297.300781 116.015625 297.601562 115.816406 C 297.902344 115.613281 298.183594 115.386719 298.4375 115.128906 C 298.695312 114.875 298.925781 114.59375 299.125 114.292969 C 299.328125 113.992188 299.496094 113.671875 299.636719 113.339844 C 299.773438 113.003906 299.878906 112.660156 299.949219 112.304688 C 300.019531 111.949219 300.054688 111.589844 300.054688 111.226562 C 300.054688 110.863281 300.019531 110.503906 299.949219 110.148438 C 299.878906 109.792969 299.773438 109.449219 299.636719 109.113281 C 299.496094 108.78125 299.328125 108.460938 299.125 108.160156 C 298.925781 107.859375 298.695312 107.578125 298.4375 107.324219 C 298.183594 107.066406 297.902344 106.839844 297.601562 106.636719 C 297.300781 106.4375 296.984375 106.265625 296.648438 106.128906 C 296.3125 105.988281 295.96875 105.882812 295.613281 105.8125 C 295.257812 105.742188 294.898438 105.707031 294.535156 105.707031 Z M 294.535156 105.707031 " fill-opacity="1" fill-rule="nonzero"/><path fill="#fbcd59" d="M 268.390625 257.933594 C 268.027344 257.933594 267.667969 257.96875 267.3125 258.039062 C 266.957031 258.109375 266.613281 258.214844 266.277344 258.351562 C 265.945312 258.492188 265.625 258.660156 265.324219 258.863281 C 265.023438 259.0625 264.742188 259.292969 264.488281 259.550781 C 264.230469 259.804688 264.003906 260.085938 263.800781 260.386719 C 263.601562 260.6875 263.429688 261.003906 263.292969 261.339844 C 263.152344 261.675781 263.046875 262.019531 262.976562 262.375 C 262.90625 262.730469 262.871094 263.089844 262.871094 263.453125 C 262.871094 263.8125 262.90625 264.171875 262.976562 264.527344 C 263.046875 264.882812 263.152344 265.230469 263.292969 265.5625 C 263.429688 265.898438 263.601562 266.21875 263.800781 266.519531 C 264.003906 266.820312 264.230469 267.097656 264.488281 267.355469 C 264.742188 267.609375 265.023438 267.839844 265.324219 268.042969 C 265.625 268.242188 265.945312 268.414062 266.277344 268.550781 C 266.613281 268.691406 266.957031 268.792969 267.3125 268.867188 C 267.667969 268.9375 268.027344 268.972656 268.390625 268.972656 C 268.753906 268.972656 269.113281 268.9375 269.46875 268.867188 C 269.824219 268.792969 270.167969 268.691406 270.503906 268.550781 C 270.835938 268.414062 271.15625 268.242188 271.457031 268.042969 C 271.757812 267.839844 272.039062 267.609375 272.292969 267.355469 C 272.550781 267.097656 272.777344 266.820312 272.980469 266.519531 C 273.179688 266.21875 273.351562 265.898438 273.488281 265.5625 C 273.628906 265.230469 273.734375 264.882812 273.804688 264.527344 C 273.875 264.171875 273.910156 263.8125 273.910156 263.453125 C 273.910156 263.089844 273.875 262.730469 273.804688 262.375 C 273.734375 262.019531 273.628906 261.675781 273.488281 261.339844 C 273.351562 261.003906 273.179688 260.6875 272.980469 260.386719 C 272.777344 260.085938 272.550781 259.804688 272.292969 259.550781 C 272.039062 259.292969 271.757812 259.0625 271.457031 258.863281 C 271.15625 258.660156 270.835938 258.492188 270.503906 258.351562 C 270.167969 258.214844 269.824219 258.109375 269.46875 258.039062 C 269.113281 257.96875 268.753906 257.933594 268.390625 257.933594 Z M 84.789062 214.355469 C 84.027344 214.355469 83.273438 214.429688 82.523438 214.578125 C 81.773438 214.726562 81.046875 214.949219 80.34375 215.242188 C 79.640625 215.53125 78.96875 215.890625 78.335938 216.316406 C 77.699219 216.738281 77.113281 217.21875 76.574219 217.761719 C 76.035156 218.300781 75.550781 218.886719 75.128906 219.519531 C 74.703125 220.15625 74.347656 220.824219 74.054688 221.53125 C 73.761719 222.234375 73.542969 222.960938 73.394531 223.710938 C 73.246094 224.457031 73.171875 225.214844 73.171875 225.976562 C 73.171875 226.738281 73.246094 227.496094 73.394531 228.242188 C 73.542969 228.992188 73.761719 229.71875 74.054688 230.421875 C 74.347656 231.128906 74.703125 231.796875 75.128906 232.433594 C 75.550781 233.066406 76.035156 233.652344 76.574219 234.195312 C 77.113281 234.734375 77.699219 235.214844 78.335938 235.636719 C 78.96875 236.0625 79.640625 236.421875 80.34375 236.710938 C 81.046875 237.003906 81.773438 237.226562 82.523438 237.375 C 83.273438 237.523438 84.027344 237.597656 84.789062 237.597656 C 85.554688 237.597656 86.308594 237.523438 87.058594 237.375 C 87.804688 237.226562 88.53125 237.003906 89.238281 236.710938 C 89.941406 236.421875 90.613281 236.0625 91.246094 235.636719 C 91.878906 235.214844 92.46875 234.734375 93.007812 234.195312 C 93.546875 233.652344 94.027344 233.066406 94.453125 232.433594 C 94.875 231.796875 95.234375 231.128906 95.527344 230.421875 C 95.816406 229.71875 96.039062 228.992188 96.1875 228.242188 C 96.335938 227.496094 96.410156 226.738281 96.410156 225.976562 C 96.410156 225.214844 96.335938 224.457031 96.1875 223.710938 C 96.039062 222.960938 95.816406 222.234375 95.527344 221.53125 C 95.234375 220.824219 94.875 220.15625 94.453125 219.519531 C 94.027344 218.886719 93.546875 218.300781 93.007812 217.761719 C 92.46875 217.21875 91.878906 216.738281 91.246094 216.316406 C 90.613281 215.890625 89.941406 215.53125 89.238281 215.242188 C 88.53125 214.949219 87.804688 214.726562 87.058594 214.578125 C 86.308594 214.429688 85.554688 214.355469 84.789062 214.355469 Z M 84.789062 214.355469 " fill-opacity="1" fill-rule="nonzero"/><path fill="#77cbd2" d="M 114.710938 290.46875 C 114.351562 290.46875 113.992188 290.503906 113.636719 290.574219 C 113.28125 290.644531 112.933594 290.75 112.601562 290.890625 C 112.265625 291.027344 111.949219 291.199219 111.644531 291.398438 C 111.34375 291.601562 111.066406 291.828125 110.808594 292.085938 C 110.554688 292.34375 110.324219 292.621094 110.125 292.921875 C 109.921875 293.222656 109.75 293.542969 109.613281 293.875 C 109.472656 294.210938 109.371094 294.554688 109.300781 294.910156 C 109.226562 295.265625 109.191406 295.625 109.191406 295.988281 C 109.191406 296.351562 109.226562 296.710938 109.300781 297.066406 C 109.371094 297.421875 109.472656 297.765625 109.613281 298.101562 C 109.75 298.4375 109.921875 298.753906 110.125 299.054688 C 110.324219 299.355469 110.554688 299.636719 110.808594 299.890625 C 111.066406 300.148438 111.34375 300.375 111.644531 300.578125 C 111.949219 300.78125 112.265625 300.949219 112.601562 301.089844 C 112.933594 301.226562 113.28125 301.332031 113.636719 301.402344 C 113.992188 301.472656 114.351562 301.507812 114.710938 301.507812 C 115.074219 301.507812 115.433594 301.472656 115.789062 301.402344 C 116.144531 301.332031 116.488281 301.226562 116.824219 301.089844 C 117.160156 300.949219 117.476562 300.78125 117.777344 300.578125 C 118.082031 300.375 118.359375 300.148438 118.617188 299.890625 C 118.871094 299.636719 119.101562 299.355469 119.300781 299.054688 C 119.503906 298.753906 119.671875 298.4375 119.8125 298.101562 C 119.949219 297.765625 120.054688 297.421875 120.125 297.066406 C 120.195312 296.710938 120.230469 296.351562 120.230469 295.988281 C 120.230469 295.625 120.195312 295.265625 120.125 294.910156 C 120.054688 294.554688 119.949219 294.210938 119.8125 293.875 C 119.671875 293.542969 119.503906 293.222656 119.300781 292.921875 C 119.101562 292.621094 118.871094 292.34375 118.617188 292.085938 C 118.359375 291.828125 118.082031 291.601562 117.777344 291.398438 C 117.476562 291.199219 117.160156 291.027344 116.824219 290.890625 C 116.488281 290.75 116.144531 290.644531 115.789062 290.574219 C 115.433594 290.503906 115.074219 290.46875 114.710938 290.46875 Z M 114.710938 290.46875 " fill-opacity="1" fill-rule="nonzero"/><path fill="#ffffff" d="M 264.613281 124.300781 C 264.269531 124.300781 263.929688 124.332031 263.59375 124.398438 C 263.257812 124.46875 262.929688 124.566406 262.613281 124.699219 C 262.296875 124.828125 261.996094 124.988281 261.707031 125.179688 C 261.421875 125.371094 261.160156 125.589844 260.917969 125.832031 C 260.671875 126.074219 260.457031 126.335938 260.265625 126.625 C 260.074219 126.910156 259.914062 127.210938 259.78125 127.527344 C 259.652344 127.84375 259.550781 128.171875 259.484375 128.507812 C 259.417969 128.84375 259.386719 129.183594 259.386719 129.527344 C 259.386719 129.871094 259.417969 130.210938 259.484375 130.546875 C 259.550781 130.886719 259.652344 131.210938 259.78125 131.53125 C 259.914062 131.847656 260.074219 132.148438 260.265625 132.433594 C 260.457031 132.71875 260.671875 132.984375 260.917969 133.226562 C 261.160156 133.46875 261.421875 133.6875 261.707031 133.875 C 261.996094 134.066406 262.296875 134.226562 262.613281 134.359375 C 262.929688 134.492188 263.257812 134.589844 263.59375 134.65625 C 263.929688 134.722656 264.269531 134.757812 264.613281 134.757812 C 264.957031 134.757812 265.296875 134.722656 265.632812 134.65625 C 265.972656 134.589844 266.296875 134.492188 266.613281 134.359375 C 266.933594 134.226562 267.234375 134.066406 267.519531 133.875 C 267.804688 133.6875 268.070312 133.46875 268.3125 133.226562 C 268.554688 132.984375 268.769531 132.71875 268.960938 132.433594 C 269.152344 132.148438 269.3125 131.847656 269.445312 131.53125 C 269.578125 131.210938 269.675781 130.886719 269.742188 130.546875 C 269.808594 130.210938 269.84375 129.871094 269.84375 129.527344 C 269.84375 129.183594 269.808594 128.84375 269.742188 128.507812 C 269.675781 128.171875 269.578125 127.84375 269.445312 127.527344 C 269.3125 127.210938 269.152344 126.910156 268.960938 126.625 C 268.769531 126.335938 268.554688 126.074219 268.3125 125.832031 C 268.070312 125.589844 267.804688 125.371094 267.519531 125.179688 C 267.234375 124.988281 266.933594 124.828125 266.613281 124.699219 C 266.296875 124.566406 265.972656 124.46875 265.632812 124.398438 C 265.296875 124.332031 264.957031 124.300781 264.613281 124.300781 Z M 95.828125 183.5625 C 95.351562 183.5625 94.878906 183.609375 94.414062 183.703125 C 93.945312 183.796875 93.492188 183.933594 93.050781 184.117188 C 92.609375 184.296875 92.191406 184.523438 91.792969 184.785156 C 91.398438 185.050781 91.03125 185.351562 90.695312 185.691406 C 90.355469 186.027344 90.054688 186.394531 89.792969 186.789062 C 89.527344 187.1875 89.300781 187.605469 89.121094 188.046875 C 88.9375 188.488281 88.800781 188.941406 88.707031 189.410156 C 88.613281 189.875 88.566406 190.347656 88.566406 190.824219 C 88.566406 191.300781 88.613281 191.773438 88.707031 192.242188 C 88.800781 192.710938 88.9375 193.164062 89.121094 193.605469 C 89.300781 194.046875 89.527344 194.464844 89.792969 194.859375 C 90.054688 195.257812 90.355469 195.625 90.695312 195.960938 C 91.03125 196.296875 91.398438 196.597656 91.792969 196.863281 C 92.191406 197.128906 92.609375 197.351562 93.050781 197.535156 C 93.492188 197.71875 93.945312 197.855469 94.414062 197.949219 C 94.878906 198.042969 95.351562 198.089844 95.828125 198.089844 C 96.308594 198.089844 96.777344 198.042969 97.246094 197.949219 C 97.714844 197.855469 98.167969 197.71875 98.609375 197.535156 C 99.050781 197.351562 99.46875 197.128906 99.863281 196.863281 C 100.261719 196.597656 100.628906 196.296875 100.964844 195.960938 C 101.300781 195.625 101.605469 195.257812 101.867188 194.859375 C 102.132812 194.464844 102.355469 194.046875 102.539062 193.605469 C 102.722656 193.164062 102.859375 192.710938 102.953125 192.242188 C 103.046875 191.773438 103.09375 191.300781 103.09375 190.824219 C 103.09375 190.347656 103.046875 189.875 102.953125 189.410156 C 102.859375 188.941406 102.722656 188.488281 102.539062 188.046875 C 102.355469 187.605469 102.132812 187.1875 101.867188 186.789062 C 101.605469 186.394531 101.300781 186.027344 100.964844 185.691406 C 100.628906 185.351562 100.261719 185.050781 99.863281 184.785156 C 99.46875 184.523438 99.050781 184.296875 98.609375 184.117188 C 98.167969 183.933594 97.714844 183.796875 97.246094 183.703125 C 96.777344 183.609375 96.308594 183.5625 95.828125 183.5625 Z M 95.828125 183.5625 " fill-opacity="1" fill-rule="nonzero"/><path fill="#fabf82" d="M 241.953125 248.34375 C 240.792969 242.246094 238.179688 238.46875 232.367188 236.726562 C 232.078125 236.726562 231.785156 236.433594 231.496094 236.433594 C 230.914062 236.144531 230.335938 236.144531 229.753906 235.855469 C 226.265625 234.402344 204.480469 226.265625 204.480469 226.265625 C 202.734375 225.6875 201.574219 224.523438 200.992188 223.070312 C 199.832031 220.746094 200.410156 214.648438 200.410156 214.648438 C 200.410156 214.648438 191.40625 217.84375 185.886719 218.714844 C 180.367188 219.296875 168.457031 212.03125 168.457031 212.03125 C 168.457031 212.03125 168.164062 220.746094 167.875 222.78125 C 167.585938 224.234375 165.839844 225.6875 164.097656 225.976562 L 142.890625 233.820312 C 140.566406 234.402344 138.535156 235.273438 136.5 236.433594 C 131.273438 239.628906 128.65625 244.570312 127.203125 248.636719 C 127.203125 248.636719 125.75 258.222656 125.75 258.511719 C 125.75 259.964844 125.460938 261.417969 125.460938 262.871094 C 148.121094 278.269531 166.132812 282.335938 197.214844 281.171875 C 211.453125 280.59375 232.367188 273.621094 243.40625 268.101562 C 243.117188 255.609375 241.953125 248.34375 241.953125 248.34375 Z M 241.953125 248.34375 " fill-opacity="1" fill-rule="nonzero"/><path fill="#88cdd7" d="M 232.367188 236.726562 C 232.078125 236.726562 231.785156 236.433594 231.496094 236.433594 C 230.914062 236.144531 230.335938 236.144531 229.753906 235.855469 C 227.429688 234.980469 218.421875 231.496094 211.742188 229.171875 L 211.453125 229.171875 C 203.898438 232.660156 193.730469 238.179688 184.144531 238.179688 C 174.558594 238.179688 164.96875 232.949219 156.835938 228.882812 L 155.964844 229.171875 L 142.890625 233.820312 C 140.566406 234.402344 138.535156 235.273438 136.5 236.433594 C 131.273438 239.628906 128.65625 244.570312 127.203125 248.636719 C 127.203125 248.636719 125.75 258.222656 125.75 258.511719 C 125.75 259.964844 125.460938 274.199219 125.460938 275.945312 C 148.121094 291.339844 166.132812 295.40625 197.214844 294.246094 C 211.453125 293.664062 232.367188 286.691406 243.40625 281.171875 C 242.824219 268.972656 241.664062 248.636719 241.664062 248.636719 C 240.792969 242.246094 238.179688 238.757812 232.367188 236.726562 Z M 232.367188 236.726562 " fill-opacity="1" fill-rule="nonzero"/><path fill="#be7841" d="M 153.058594 178.332031 C 152.480469 177.460938 142.019531 153.351562 150.15625 137.371094 C 153.640625 130.691406 159.742188 126.332031 168.164062 124.300781 C 173.105469 120.8125 179.207031 119.070312 185.015625 119.070312 C 189.953125 119.070312 194.890625 120.230469 199.25 122.847656 C 201.574219 124.300781 203.609375 125.460938 205.351562 126.332031 C 210.578125 129.238281 212.324219 130.398438 215.226562 130.398438 C 215.519531 130.398438 215.808594 130.398438 216.390625 130.398438 L 216.679688 130.398438 C 217.261719 130.398438 217.550781 130.398438 217.84375 130.398438 C 220.457031 130.398438 221.328125 131.851562 221.328125 133.015625 C 221.617188 135.917969 220.746094 138.535156 219.585938 140.859375 C 218.714844 142.890625 218.132812 144.636719 218.421875 146.378906 C 223.652344 163.808594 215.519531 178.042969 215.226562 178.914062 L 213.195312 182.980469 L 213.195312 177.753906 C 213.195312 177.753906 213.195312 164.097656 210 155.382812 C 205.933594 157.707031 200.992188 158.871094 195.472656 158.871094 C 186.175781 158.871094 175.71875 155.382812 165.261719 148.992188 C 155.964844 156.253906 155.964844 177.753906 155.964844 177.753906 L 155.964844 184.433594 Z M 153.058594 178.332031 " fill-opacity="1" fill-rule="nonzero"/><path fill="#472b29" d="M 185.304688 120.230469 C 189.664062 120.230469 194.3125 121.394531 198.960938 124.007812 C 209.128906 129.820312 211.160156 131.5625 215.808594 131.5625 C 216.097656 131.5625 216.679688 131.5625 216.972656 131.5625 C 217.550781 131.5625 218.132812 131.5625 218.421875 131.5625 C 219.585938 131.5625 220.457031 131.851562 220.457031 133.015625 C 221.039062 138.242188 216.679688 142.601562 217.84375 146.667969 C 223.070312 163.808594 214.648438 178.042969 214.648438 178.042969 C 214.648438 178.042969 214.648438 162.355469 210.578125 153.640625 C 206.511719 156.253906 201.285156 157.707031 195.183594 157.707031 C 186.175781 157.707031 175.71875 154.511719 164.96875 147.539062 C 154.222656 154.222656 154.511719 177.460938 154.511719 177.460938 C 154.511719 177.460938 134.175781 132.722656 168.746094 125.171875 C 173.394531 122.265625 178.914062 120.230469 185.304688 120.230469 M 185.304688 117.328125 L 185.304688 120.230469 L 185.304688 117.328125 C 179.207031 117.328125 173.105469 119.359375 167.875 122.847656 C 158.578125 124.878906 152.480469 129.527344 148.703125 136.5 C 140.277344 153.351562 151.316406 177.753906 151.605469 178.914062 L 157.125 191.117188 L 157.125 177.460938 C 157.125 171.652344 158.578125 156.546875 164.96875 150.445312 C 175.136719 156.835938 185.597656 160.03125 195.183594 160.03125 C 200.121094 160.03125 205.058594 159.160156 208.835938 157.125 C 211.453125 165.550781 211.453125 177.460938 211.453125 177.460938 L 211.453125 188.210938 L 216.972656 178.914062 C 217.261719 178.332031 225.976562 163.519531 220.457031 145.214844 C 220.167969 144.054688 220.746094 142.601562 221.617188 140.566406 C 222.492188 138.242188 223.652344 135.339844 223.363281 131.851562 C 223.363281 130.980469 222.492188 128.074219 218.421875 128.074219 C 217.84375 128.074219 217.550781 128.074219 216.972656 128.074219 L 216.679688 128.074219 C 216.390625 128.074219 216.097656 128.074219 215.808594 128.074219 C 213.195312 128.074219 211.742188 127.203125 206.511719 124.300781 C 204.769531 123.429688 203.027344 122.265625 200.410156 120.8125 C 195.472656 118.488281 190.246094 117.328125 185.304688 117.328125 Z M 185.304688 117.328125 " fill-opacity="1" fill-rule="nonzero"/><path fill="#00a5a5" d="M 145.507812 288.144531 C 144.925781 288.144531 144.636719 287.855469 144.636719 287.273438 L 144.636719 275.652344 C 144.636719 275.070312 144.925781 274.78125 145.507812 274.78125 C 146.085938 274.78125 146.378906 275.070312 146.378906 275.652344 L 146.378906 287.273438 C 146.378906 287.855469 146.085938 288.144531 145.507812 288.144531 Z M 221.910156 290.179688 C 221.328125 290.179688 221.039062 289.886719 221.039062 289.308594 L 221.039062 275.945312 C 221.039062 275.363281 221.328125 275.070312 221.910156 275.070312 C 222.492188 275.070312 222.78125 275.363281 222.78125 275.945312 L 222.78125 289.308594 C 222.78125 289.886719 222.492188 290.179688 221.910156 290.179688 Z M 221.910156 290.179688 " fill-opacity="1" fill-rule="nonzero"/><path fill="#fddbbc" d="M 219.585938 171.363281 C 219.296875 171.363281 219.003906 171.363281 218.421875 171.363281 C 215.519531 171.363281 215.808594 172.234375 216.097656 170.488281 C 216.390625 167.292969 214.9375 155.09375 214.9375 154.222656 C 214.9375 141.148438 201.285156 130.691406 184.433594 130.109375 C 184.433594 130.109375 184.144531 130.109375 184.144531 130.109375 C 184.144531 130.109375 183.851562 130.109375 183.851562 130.109375 C 167.003906 130.691406 153.351562 141.148438 153.351562 154.222656 C 153.351562 154.800781 153.058594 167.292969 153.058594 170.488281 C 153.058594 172.234375 152.480469 171.070312 149.574219 171.363281 C 149.28125 171.363281 148.992188 171.363281 148.410156 171.363281 C 145.214844 171.652344 142.890625 173.394531 142.3125 176.007812 C 142.601562 176.300781 144.054688 186.757812 146.378906 191.117188 C 147.539062 193.441406 149.574219 193.730469 151.605469 195.183594 C 152.769531 196.054688 153.058594 196.925781 153.351562 198.089844 C 154.511719 202.734375 157.707031 206.511719 161.195312 210 C 162.9375 211.742188 174.265625 223.652344 184.144531 223.070312 C 194.019531 222.78125 205.351562 211.453125 207.09375 210 C 210.578125 206.511719 213.773438 202.734375 214.9375 198.089844 C 215.226562 196.925781 215.519531 195.765625 216.679688 195.183594 C 218.714844 193.730469 220.746094 193.441406 221.910156 191.117188 C 224.234375 187.046875 225.6875 176.300781 225.976562 176.007812 C 225.105469 173.394531 222.78125 171.652344 219.585938 171.363281 Z M 219.585938 171.363281 " fill-opacity="1" fill-rule="nonzero"/><path fill="#512c2b" d="M 184.433594 191.988281 C 186.46875 191.988281 188.210938 191.117188 189.664062 189.664062 C 189.664062 189.664062 189.664062 189.371094 189.664062 189.082031 C 189.664062 189.082031 189.371094 189.082031 189.082031 189.082031 C 188.210938 190.246094 186.46875 190.824219 184.433594 190.824219 C 182.402344 190.824219 180.949219 190.246094 179.785156 189.082031 C 179.785156 189.082031 179.496094 189.082031 179.496094 189.082031 C 179.496094 189.082031 179.207031 189.082031 179.207031 189.082031 C 179.207031 189.082031 178.914062 189.371094 179.207031 189.664062 C 180.367188 191.117188 182.402344 191.988281 184.433594 191.988281 Z M 178.042969 164.96875 L 179.207031 162.644531 C 173.976562 161.484375 167.875 161.484375 162.644531 163.226562 L 164.097656 165.550781 C 168.457031 164.097656 173.683594 164.097656 178.042969 164.96875 Z M 204.769531 164.96875 L 205.933594 162.644531 C 200.703125 161.484375 194.601562 161.484375 189.371094 163.226562 L 190.824219 165.550781 C 195.183594 164.097656 200.410156 164.097656 204.769531 164.96875 Z M 170.488281 168.457031 C 169.328125 168.457031 168.164062 169.328125 167.585938 170.488281 C 167.875 170.488281 167.875 170.488281 168.164062 170.488281 C 169.328125 170.488281 170.199219 171.363281 170.199219 172.523438 C 170.199219 173.683594 169.328125 174.558594 168.164062 174.558594 C 167.875 174.558594 167.585938 174.558594 167.292969 174.265625 C 167.875 176.300781 169.039062 177.460938 170.78125 177.460938 C 172.8125 177.460938 174.558594 175.429688 174.558594 172.8125 C 173.976562 170.488281 172.234375 168.457031 170.488281 168.457031 Z M 198.089844 168.457031 C 196.925781 168.457031 196.054688 169.039062 195.472656 169.910156 C 195.765625 169.910156 195.765625 169.910156 196.054688 169.910156 C 197.214844 169.910156 198.089844 170.78125 198.089844 171.941406 C 198.089844 173.105469 197.214844 173.976562 196.054688 173.976562 C 195.472656 173.976562 194.890625 173.683594 194.601562 173.105469 C 194.601562 175.71875 196.34375 177.753906 198.378906 177.753906 C 200.410156 177.753906 202.15625 175.71875 202.15625 173.105469 C 201.863281 170.488281 200.121094 168.457031 198.089844 168.457031 Z M 199.832031 197.214844 C 200.121094 197.214844 200.121094 196.925781 199.832031 196.636719 C 199.832031 196.34375 199.539062 196.34375 199.25 196.636719 C 196.054688 199.25 190.535156 200.703125 184.433594 200.703125 C 178.332031 200.703125 172.8125 199.25 169.617188 196.636719 C 169.617188 196.636719 169.617188 196.636719 169.328125 196.636719 C 169.328125 196.636719 169.039062 196.636719 169.039062 196.636719 C 169.039062 196.925781 169.039062 196.925781 169.039062 197.214844 C 172.8125 200.121094 178.625 202.15625 184.433594 202.15625 C 190.246094 202.15625 196.054688 200.410156 199.832031 197.214844 Z M 188.5 212.613281 C 188.792969 212.613281 188.792969 212.324219 188.792969 212.03125 C 188.792969 211.742188 188.5 211.453125 188.5 211.453125 L 180.949219 211.453125 C 180.65625 211.742188 180.65625 211.742188 180.65625 212.03125 C 180.65625 212.324219 180.949219 212.613281 180.949219 212.613281 Z M 188.5 212.613281 " fill-opacity="1" fill-rule="nonzero"/><path fill="#472b29" d="M 187.339844 296.277344 C 161.484375 296.277344 144.636719 291.050781 124.878906 277.6875 C 124.589844 277.394531 124.300781 276.816406 124.300781 276.234375 C 124.300781 275.945312 124.300781 274.78125 124.300781 273.328125 C 124.300781 266.9375 124.589844 253.863281 126.042969 248.636719 C 128.074219 241.664062 130.691406 238.757812 135.917969 235.5625 C 137.953125 234.402344 140.277344 233.53125 142.601562 232.660156 L 163.226562 225.105469 C 164.679688 224.816406 165.84375 223.652344 166.132812 222.78125 C 166.132812 222.492188 166.421875 221.039062 166.714844 216.972656 C 163.808594 214.9375 161.195312 212.902344 160.613281 212.324219 C 155.964844 207.964844 153.351562 203.898438 152.480469 199.539062 C 152.1875 198.378906 151.898438 197.796875 151.316406 197.214844 C 150.734375 196.636719 150.15625 196.34375 149.574219 196.054688 C 148.121094 195.183594 146.667969 194.3125 145.796875 192.570312 C 143.472656 187.921875 141.4375 179.496094 141.4375 176.589844 C 141.4375 176.589844 141.4375 176.300781 141.4375 176.300781 C 142.019531 173.105469 145.214844 170.78125 148.992188 170.488281 C 149.28125 170.488281 149.863281 170.488281 150.15625 170.488281 C 151.027344 170.488281 151.605469 170.488281 152.1875 170.488281 C 152.1875 167.003906 152.1875 159.449219 152.480469 156.253906 C 152.480469 155.382812 152.480469 154.800781 152.480469 154.800781 C 152.480469 141.148438 166.421875 129.820312 183.851562 128.949219 C 183.851562 128.949219 184.144531 128.949219 184.144531 128.949219 L 184.433594 130.398438 L 184.433594 128.949219 C 184.433594 128.949219 184.726562 128.949219 184.726562 128.949219 C 202.445312 129.527344 216.390625 140.859375 216.390625 154.800781 C 216.390625 155.09375 216.390625 155.964844 216.679688 157.125 C 217.261719 162.355469 217.84375 168.164062 217.550781 170.488281 L 217.550781 170.78125 C 217.84375 170.78125 218.132812 170.78125 218.132812 170.78125 L 218.421875 170.78125 C 218.714844 170.78125 219.003906 170.78125 219.585938 170.78125 C 223.363281 171.070312 226.265625 173.394531 227.136719 176.589844 C 227.136719 176.589844 227.136719 176.882812 227.136719 176.882812 C 227.136719 180.078125 225.394531 188.5 222.78125 192.859375 C 221.617188 194.890625 220.167969 195.765625 219.003906 196.34375 C 218.421875 196.636719 217.84375 196.925781 217.261719 197.507812 C 216.679688 198.089844 216.390625 198.378906 216.097656 199.832031 C 214.9375 204.1875 212.324219 208.253906 207.964844 212.613281 C 207.09375 213.195312 204.480469 215.519531 201.574219 217.84375 C 201.574219 220.457031 201.863281 222.199219 202.15625 223.070312 C 202.445312 223.941406 203.316406 225.105469 204.769531 225.394531 C 205.933594 225.6875 226.558594 233.53125 230.042969 234.980469 C 230.625 235.273438 231.207031 235.5625 231.785156 235.5625 C 232.078125 235.5625 232.367188 235.855469 232.660156 235.855469 C 238.757812 237.597656 241.953125 241.664062 243.40625 248.636719 C 243.40625 248.636719 243.40625 248.636719 243.40625 248.925781 C 243.40625 248.925781 244.570312 268.972656 245.148438 281.464844 C 245.148438 282.042969 244.859375 282.625 244.277344 282.914062 C 232.660156 288.726562 211.453125 295.699219 197.507812 296.277344 C 194.019531 295.988281 190.535156 296.277344 187.339844 296.277344 Z M 127.203125 275.652344 C 148.703125 290.179688 166.421875 294.535156 197.507812 293.082031 C 210.578125 292.503906 230.625 286.113281 242.246094 280.589844 C 241.664062 268.679688 240.792969 250.667969 240.792969 249.21875 C 239.628906 243.117188 237.304688 240.210938 232.078125 238.757812 C 231.785156 238.757812 231.496094 238.46875 230.914062 238.46875 C 230.335938 238.179688 229.753906 238.179688 229.171875 237.886719 C 225.6875 236.433594 204.1875 228.589844 203.898438 228.300781 C 202.15625 227.71875 200.410156 226.558594 199.539062 224.523438 C 198.960938 223.070312 198.667969 220.746094 198.667969 217.261719 C 198.667969 216.679688 198.960938 216.390625 199.25 216.097656 C 202.734375 213.484375 205.351562 211.453125 205.933594 210.871094 C 210 206.804688 212.324219 203.316406 213.195312 199.539062 C 213.484375 198.089844 213.773438 196.925781 215.519531 195.765625 C 216.097656 195.183594 216.972656 194.890625 217.550781 194.3125 C 218.714844 193.730469 219.585938 193.148438 220.457031 191.988281 C 222.78125 187.921875 224.234375 180.367188 224.234375 177.753906 C 223.652344 176.007812 221.910156 174.558594 219.585938 174.265625 C 219.296875 174.265625 219.003906 174.265625 218.714844 174.265625 L 218.132812 174.265625 C 216.390625 174.265625 215.808594 174.265625 215.226562 173.394531 C 214.648438 172.8125 214.648438 171.941406 214.648438 171.363281 L 214.648438 171.070312 C 214.9375 169.039062 214.066406 161.773438 213.773438 158.289062 C 213.484375 156.835938 213.484375 155.964844 213.484375 155.675781 C 213.484375 143.472656 200.703125 133.304688 184.433594 132.722656 C 184.433594 132.722656 184.433594 132.722656 184.144531 132.722656 C 184.144531 132.722656 183.851562 132.722656 183.851562 132.722656 C 167.585938 133.304688 154.800781 143.472656 154.800781 155.675781 C 154.800781 155.675781 154.800781 156.253906 154.800781 157.125 C 154.800781 160.613281 154.511719 169.328125 154.511719 171.941406 C 154.511719 172.523438 154.511719 173.394531 153.929688 173.976562 C 153.351562 174.558594 152.480469 174.558594 151.605469 174.265625 C 151.027344 174.265625 150.445312 173.976562 149.574219 174.265625 C 149.28125 174.265625 148.992188 174.265625 148.410156 174.265625 C 146.085938 174.558594 144.054688 175.71875 143.761719 177.753906 C 143.761719 180.367188 145.507812 188.210938 147.539062 191.988281 C 148.121094 193.148438 148.992188 193.730469 150.445312 194.3125 C 151.027344 194.601562 151.898438 195.183594 152.480469 195.765625 C 153.929688 196.925781 154.222656 198.378906 154.511719 199.539062 C 155.382812 203.316406 157.707031 206.804688 161.773438 210.871094 C 162.355469 211.453125 164.96875 213.484375 168.164062 215.808594 C 168.457031 216.097656 168.746094 216.679688 168.746094 216.972656 C 168.457031 220.746094 168.457031 223.070312 168.164062 224.234375 C 167.585938 226.558594 165.550781 228.011719 163.226562 228.589844 L 142.601562 236.144531 C 140.277344 236.726562 138.242188 237.597656 136.5 238.757812 C 131.851562 241.664062 129.527344 243.699219 128.074219 250.089844 C 126.914062 255.027344 126.625 268.390625 126.625 274.199219 C 127.203125 274.199219 127.203125 275.070312 127.203125 275.652344 Z M 127.203125 275.652344 " fill-opacity="1" fill-rule="nonzero"/><path fill="#895d3d" d="M 219.875 185.597656 L 218.132812 185.304688 L 218.714844 180.078125 L 215.808594 181.238281 L 215.226562 179.496094 L 219.585938 177.753906 C 219.875 177.753906 220.167969 177.753906 220.457031 177.753906 C 220.746094 178.042969 220.746094 178.332031 220.746094 178.625 Z M 149.574219 184.433594 L 148.703125 177.753906 C 148.703125 177.460938 148.703125 177.171875 148.992188 176.882812 C 149.28125 176.589844 149.574219 176.589844 149.863281 176.882812 L 154.222656 178.625 L 153.640625 180.367188 L 150.734375 179.207031 L 151.316406 184.433594 Z M 149.574219 184.433594 " fill-opacity="1" fill-rule="nonzero"/><path fill="#472b29" d="M 153.351562 197.507812 C 153.058594 197.507812 152.769531 197.214844 152.769531 196.925781 L 153.351562 171.941406 C 153.351562 171.652344 153.640625 171.363281 153.929688 171.363281 C 154.222656 171.363281 154.511719 171.652344 154.511719 171.941406 L 153.929688 196.925781 C 153.929688 197.214844 153.640625 197.507812 153.351562 197.507812 Z M 215.519531 197.507812 C 215.226562 197.507812 214.9375 197.214844 214.9375 196.925781 L 214.355469 171.941406 C 214.355469 171.652344 214.648438 171.363281 214.9375 171.363281 C 215.226562 171.363281 215.519531 171.652344 215.519531 171.941406 L 216.097656 196.925781 C 216.097656 197.214844 215.808594 197.507812 215.519531 197.507812 Z M 184.433594 223.941406 C 178.332031 223.941406 167.875 216.390625 167.292969 216.097656 C 167.003906 215.808594 167.003906 215.519531 167.003906 215.226562 C 167.003906 214.9375 167.585938 214.9375 167.875 214.9375 C 167.875 214.9375 179.207031 223.070312 184.726562 222.492188 C 190.246094 221.910156 199.25 215.519531 199.25 215.519531 C 199.539062 215.226562 200.121094 215.226562 200.121094 215.808594 C 200.121094 216.390625 200.410156 216.679688 199.832031 216.679688 C 199.539062 216.972656 190.535156 223.363281 184.726562 223.941406 C 185.015625 223.941406 184.726562 223.941406 184.433594 223.941406 Z M 184.433594 223.941406 " fill-opacity="1" fill-rule="nonzero"/><path fill="#be7841" d="M 220.457031 133.015625 C 220.167969 131.273438 218.421875 131.5625 216.679688 131.851562 C 211.160156 132.144531 210 130.398438 198.667969 124.300781 C 187.628906 118.199219 176.300781 120.523438 168.746094 126.042969 C 134.175781 133.59375 154.511719 178.332031 154.511719 178.332031 C 154.511719 178.332031 154.511719 154.800781 165.261719 147.832031 C 183.273438 159.449219 200.410156 160.902344 210.871094 153.929688 C 214.9375 162.9375 214.9375 178.332031 214.9375 178.332031 C 214.9375 178.332031 223.363281 164.097656 218.132812 146.957031 C 216.390625 142.3125 221.039062 138.242188 220.457031 133.015625 Z M 220.457031 133.015625 " fill-opacity="1" fill-rule="nonzero"/><path fill="#472b29" d="M 215.808594 177.753906 L 214.355469 177.753906 C 214.355469 177.460938 214.355469 162.9375 210.871094 154.222656 C 199.539062 161.195312 182.109375 158.578125 164.96875 147.832031 C 154.800781 155.09375 154.800781 177.460938 154.800781 177.460938 L 153.351562 177.460938 C 153.351562 176.589844 153.351562 153.351562 164.390625 146.085938 C 164.679688 145.796875 164.96875 145.796875 165.261719 146.085938 C 182.402344 156.835938 199.832031 159.160156 210.871094 152.1875 C 211.160156 152.1875 211.160156 151.898438 211.453125 152.1875 C 211.742188 152.1875 211.742188 152.476562 212.03125 152.476562 C 215.808594 161.773438 215.808594 176.882812 215.808594 177.753906 Z M 215.808594 177.753906 " fill-opacity="1" fill-rule="nonzero"/></svg>